<svg width="554" height="423" viewBox="0 0 554 423" fill="none" xmlns="http://www.w3.org/2000/svg">
<path fill-rule="evenodd" clip-rule="evenodd" d="M185.234 388.793C188.237 391.635 189.303 395.997 187.95 399.904C186.047 405.399 180.028 408.322 174.533 406.419L173.766 406.153C156.91 400.315 147.946 381.851 153.784 364.995L155.249 360.766C161.087 343.91 179.55 334.946 196.407 340.784L199.596 341.889C207.511 344.63 211.72 353.3 208.979 361.216C206.939 367.105 201.599 371.109 195.374 371.417L184.638 371.947C181.774 372.089 179.316 373.932 178.377 376.642C177.48 379.232 178.187 382.123 180.178 384.007L185.234 388.793Z" fill="url(#paint0_radial_7_991)"/>
<path fill-rule="evenodd" clip-rule="evenodd" d="M262.438 67.978C260.215 72.1679 255.721 74.6816 250.987 74.382C244.331 73.9606 239.258 68.2023 239.679 61.5459L239.738 60.6171C241.031 40.1981 258.694 24.6377 279.113 25.9303L284.236 26.2546C304.655 27.5472 320.215 45.2108 318.923 65.6297L318.678 69.4923C318.071 79.0805 309.777 86.3874 300.188 85.7807C293.055 85.3291 286.994 80.6521 284.748 73.866L280.875 62.1626C279.841 59.0396 277.052 56.8873 273.769 56.6795C270.632 56.4809 267.652 58.1471 266.179 60.9245L262.438 67.978Z" fill="url(#paint1_radial_7_991)"/>
<path fill-rule="evenodd" clip-rule="evenodd" d="M509.374 139.705C512.104 138.029 515.581 138.106 518.233 139.903C521.963 142.43 522.941 147.52 520.414 151.25L520.062 151.77C512.31 163.211 496.696 166.212 485.256 158.461L482.385 156.516C470.945 148.765 467.943 133.151 475.695 121.71L477.161 119.546C480.801 114.173 488.133 112.764 493.506 116.404C497.503 119.112 499.427 123.912 498.408 128.631L496.65 136.77C496.181 138.942 497.067 141.15 498.906 142.397C500.664 143.588 502.969 143.639 504.779 142.528L509.374 139.705Z" fill="url(#paint2_radial_7_991)"/>
<g opacity="0.7" filter="url(#filter0_f_7_991)">
<path fill-rule="evenodd" clip-rule="evenodd" d="M329.103 328.332C326.096 329.436 322.702 328.673 320.457 326.388C317.3 323.174 317.347 317.991 320.561 314.834L321.009 314.393C330.868 304.71 346.767 304.852 356.451 314.711L358.881 317.184C368.564 327.043 368.422 342.942 358.563 352.626L356.698 354.458C352.069 359.005 344.603 358.938 340.055 354.309C336.672 350.865 335.734 345.78 337.665 341.355L340.996 333.723C341.885 331.687 341.453 329.347 339.896 327.762C338.408 326.247 336.158 325.741 334.165 326.473L329.103 328.332Z" fill="url(#paint3_radial_7_991)"/>
</g>
<g opacity="0.5" filter="url(#filter1_f_7_991)">
<path fill-rule="evenodd" clip-rule="evenodd" d="M72.3034 192.111C75.2021 190.747 78.6496 191.209 81.0863 193.288C84.5131 196.213 84.9217 201.38 81.9973 204.807L81.5893 205.285C72.6183 215.797 56.7679 217.05 46.2561 208.079L43.619 205.829C33.1073 196.858 31.8537 181.007 40.8247 170.496L42.5218 168.507C46.7343 163.571 54.1774 162.983 59.1135 167.195C62.786 170.329 64.1669 175.312 62.6313 179.89L59.9831 187.784C59.2766 189.891 59.912 192.184 61.6021 193.626C63.2172 195.005 65.5025 195.311 67.4239 194.407L72.3034 192.111Z" fill="url(#paint4_radial_7_991)"/>
</g>
<defs>
<filter id="filter0_f_7_991" x="308.12" y="297.223" width="67.9316" height="70.6025" filterUnits="userSpaceOnUse" color-interpolation-filters="sRGB">
<feFlood flood-opacity="0" result="BackgroundImageFix"/>
<feBlend mode="normal" in="SourceGraphic" in2="BackgroundImageFix" result="shape"/>
<feGaussianBlur stdDeviation="5" result="effect1_foregroundBlur_7_991"/>
</filter>
<filter id="filter1_f_7_991" x="14.8369" y="144.384" width="89.1123" height="89.6836" filterUnits="userSpaceOnUse" color-interpolation-filters="sRGB">
<feFlood flood-opacity="0" result="BackgroundImageFix"/>
<feBlend mode="normal" in="SourceGraphic" in2="BackgroundImageFix" result="shape"/>
<feGaussianBlur stdDeviation="10" result="effect1_foregroundBlur_7_991"/>
</filter>
<radialGradient id="paint0_radial_7_991" cx="0" cy="0" r="1" gradientUnits="userSpaceOnUse" gradientTransform="translate(178.335 343.422) rotate(93.2397) scale(72.2332 61.4158)">
<stop stop-color="#F5A970"/>
<stop offset="0.270833" stop-color="#F09652" stop-opacity="0.97"/>
<stop offset="0.663612" stop-color="#DA8749" stop-opacity="0.97"/>
<stop offset="0.864547" stop-color="#F2A165" stop-opacity="0.97"/>
</radialGradient>
<radialGradient id="paint1_radial_7_991" cx="0" cy="0" r="1" gradientUnits="userSpaceOnUse" gradientTransform="translate(310.474 46.4624) rotate(167.758) scale(82.8462 70.4394)">
<stop stop-color="#F5A970"/>
<stop offset="0.270833" stop-color="#F09652" stop-opacity="0.97"/>
<stop offset="0.663612" stop-color="#DA8749" stop-opacity="0.97"/>
<stop offset="0.864547" stop-color="#F2A165" stop-opacity="0.97"/>
</radialGradient>
<radialGradient id="paint2_radial_7_991" cx="0" cy="0" r="1" gradientUnits="userSpaceOnUse" gradientTransform="translate(474.042 135.761) rotate(18.2549) scale(55.9577 47.5777)">
<stop stop-color="#F5A970"/>
<stop offset="0.270833" stop-color="#F09652" stop-opacity="0.97"/>
<stop offset="0.663612" stop-color="#DA8749" stop-opacity="0.97"/>
<stop offset="0.864547" stop-color="#F2A165" stop-opacity="0.97"/>
</radialGradient>
<radialGradient id="paint3_radial_7_991" cx="0" cy="0" r="1" gradientUnits="userSpaceOnUse" gradientTransform="translate(362.96 339.178) rotate(-150.351) scale(55.9577 47.5776)">
<stop stop-color="#F5A970"/>
<stop offset="0.270833" stop-color="#F09652" stop-opacity="0.97"/>
<stop offset="0.663612" stop-color="#DA8749" stop-opacity="0.97"/>
<stop offset="0.864547" stop-color="#F2A165" stop-opacity="0.97"/>
</radialGradient>
<radialGradient id="paint4_radial_7_991" cx="0" cy="0" r="1" gradientUnits="userSpaceOnUse" gradientTransform="translate(37.6255 184.278) rotate(24.614) scale(55.9577 47.5776)">
<stop stop-color="#F5A970"/>
<stop offset="0.270833" stop-color="#F09652" stop-opacity="0.97"/>
<stop offset="0.663612" stop-color="#DA8749" stop-opacity="0.97"/>
<stop offset="0.864547" stop-color="#F2A165" stop-opacity="0.97"/>
</radialGradient>
</defs>
</svg>
