<svg width="233" height="140" viewBox="0 0 233 140" fill="none" xmlns="http://www.w3.org/2000/svg">
<g opacity="0.3">
<g filter="url(#filter0_b_1_61)">
<rect width="232.809" height="140" rx="16" fill="url(#paint0_linear_1_61)" fill-opacity="0.12"/>
<rect x="0.5" y="0.5" width="231.809" height="139" rx="15.5" stroke="url(#paint1_linear_1_61)" stroke-opacity="0.2"/>
</g>
<g filter="url(#filter1_bi_1_61)">
<path d="M44.2739 44.8315H25.7261C23.6806 44.8315 22.0225 46.4801 22.0225 48.5136V61.5989C22.0225 63.6325 23.6806 65.281 25.7261 65.281H44.2739C46.3194 65.281 47.9775 63.6325 47.9775 61.5989V48.5136C47.9775 46.4801 46.3194 44.8315 44.2739 44.8315Z" fill="white" fill-opacity="0.21"/>
<path d="M25.7261 45.3315H44.2739C46.046 45.3315 47.4775 46.759 47.4775 48.5136V61.5989C47.4775 63.3536 46.046 64.781 44.2739 64.781H25.7261C23.954 64.781 22.5225 63.3536 22.5225 61.5989V48.5136C22.5225 46.759 23.954 45.3315 25.7261 45.3315Z" stroke="url(#paint2_linear_1_61)"/>
</g>
<path d="M47.9775 51.2579V50.7819H43.1887V44.8315H42.7108V50.7819H38.8977C38.6507 49.9826 38.1721 49.2738 37.522 48.7445C36.872 48.2151 36.0794 47.8889 35.2439 47.8067V44.8315H34.766V47.8067C33.8725 47.8228 33.0069 48.1189 32.292 48.653C31.5771 49.1871 31.0493 49.932 30.7837 50.7819H27.2593V44.8315H26.7814V50.7819H22.0225V51.2579H26.8113V57.962H22.0225V58.4281H26.8113V65.281H27.2593V58.4281H30.6542C30.8673 59.3533 31.3848 60.1809 32.1245 60.7793C32.8641 61.3777 33.7834 61.7126 34.7362 61.7306V65.281H35.224V61.7008C36.115 61.6159 36.9567 61.2542 37.6301 60.667C38.3036 60.0798 38.7749 59.2966 38.9774 58.4281H42.7308V65.281H43.1887V58.4281H47.9377V57.962H45.1799V51.2579H47.9775ZM30.6144 57.962H27.2593V51.2579H30.6443C30.5971 51.5199 30.5704 51.7852 30.5646 52.0513C30.566 53.0454 30.9185 54.0074 31.5602 54.7687C30.917 55.5291 30.5643 56.4916 30.5646 57.486C30.5646 57.6248 30.6045 57.8033 30.6144 57.962ZM34.8457 61.2645C34.1072 61.2682 33.3838 61.0566 32.7646 60.6557C32.1454 60.2549 31.6575 59.6822 31.3612 59.0085C31.0648 58.3347 30.9728 57.5892 31.0967 56.8641C31.2205 56.1389 31.5547 55.4656 32.058 54.9273L32.2074 54.7687L32.058 54.6497C31.5531 54.1098 31.2174 53.4348 31.0922 52.7075C30.9671 51.9803 31.0578 51.2324 31.3533 50.5558C31.6489 49.8792 32.1363 49.3033 32.7558 48.8988C33.3753 48.4944 34.1 48.2789 34.8407 48.2789C35.5814 48.2789 36.306 48.4944 36.9256 48.8988C37.5451 49.3033 38.0325 49.8792 38.3281 50.5558C38.6236 51.2324 38.7143 51.9803 38.5891 52.7075C38.464 53.4348 38.1283 54.1098 37.6234 54.6497L37.474 54.8083L37.6234 54.967C38.1261 55.5047 38.4601 56.177 38.5843 56.9013C38.7084 57.6255 38.6173 58.3702 38.3222 59.0436C38.027 59.7169 37.5407 60.2897 36.923 60.6913C36.3054 61.0929 35.5833 61.306 34.8457 61.3041V61.2645ZM44.6722 57.962H39.067C39.067 57.8033 39.067 57.6447 39.067 57.486C39.0673 56.4916 38.7147 55.5291 38.0714 54.7687C38.7132 54.0074 39.0656 53.0454 39.067 52.0513C39.0612 51.7852 39.0346 51.5199 38.9873 51.2579H44.6224L44.6722 57.962Z" fill="url(#paint3_linear_1_61)"/>
<g filter="url(#filter2_di_1_61)">
<path d="M24.9954 22.9224C25.4872 22.9224 25.9167 23.0105 26.2837 23.1866C26.6507 23.3555 26.9334 23.5867 27.1316 23.8803C27.3298 24.174 27.4289 24.497 27.4289 24.8493C27.4289 25.3045 27.2857 25.6899 26.9994 26.0055C26.7205 26.3212 26.3608 26.5304 25.9203 26.6332C26.4342 26.6845 26.8526 26.8681 27.1756 27.1837C27.5059 27.4994 27.6711 27.9398 27.6711 28.5051C27.6711 28.9382 27.5573 29.3309 27.3298 29.6833C27.1022 30.0356 26.7792 30.3146 26.3608 30.5201C25.9423 30.7183 25.4615 30.8174 24.9183 30.8174C24.4265 30.8174 23.964 30.7293 23.5309 30.5532C23.0978 30.3696 22.7381 30.1054 22.4518 29.7603L23.2116 29.0997C23.4171 29.3493 23.663 29.5364 23.9493 29.6612C24.2356 29.786 24.5366 29.8484 24.8522 29.8484C25.3294 29.8484 25.7038 29.7236 25.9754 29.474C26.2543 29.2245 26.3938 28.8868 26.3938 28.461C26.3938 27.5728 25.902 27.1287 24.9183 27.1287H24.2686L24.4118 26.2257H24.8743C25.256 26.2257 25.5716 26.123 25.8212 25.9174C26.0781 25.7119 26.2066 25.4146 26.2066 25.0255C26.2066 24.6658 26.0855 24.3869 25.8432 24.1887C25.601 23.9831 25.2853 23.8803 24.8963 23.8803C24.588 23.8803 24.309 23.9354 24.0594 24.0455C23.8098 24.1556 23.5639 24.3281 23.3217 24.563L22.672 23.8583C23.318 23.2343 24.0925 22.9224 24.9954 22.9224Z" fill="url(#paint4_linear_1_61)" shape-rendering="crispEdges"/>
<path d="M33.6129 24.0015H30.6949V26.1156C31.084 25.9174 31.4987 25.8183 31.9392 25.8183C32.3429 25.8183 32.7026 25.9137 33.0183 26.1046C33.3413 26.2955 33.5909 26.5744 33.767 26.9415C33.9506 27.3012 34.0423 27.7306 34.0423 28.2298C34.0423 28.7363 33.9285 29.1878 33.701 29.5842C33.4734 29.9732 33.1541 30.2779 32.743 30.4981C32.3319 30.711 31.8547 30.8174 31.3115 30.8174C30.3792 30.8174 29.6048 30.4871 28.9882 29.8264L29.7149 29.1327C30.148 29.6099 30.6619 29.8484 31.2565 29.8484C31.7263 29.8484 32.0933 29.709 32.3576 29.43C32.6219 29.1437 32.754 28.7436 32.754 28.2298C32.754 27.7012 32.6402 27.3195 32.4127 27.0846C32.1924 26.8424 31.8915 26.7212 31.5097 26.7212C31.3335 26.7212 31.161 26.7433 30.9922 26.7873C30.8307 26.824 30.6435 26.8864 30.4306 26.9745H29.5167V23.0765H33.778L33.6129 24.0015Z" fill="url(#paint5_linear_1_61)" shape-rendering="crispEdges"/>
<path d="M37.5616 22.9224C38.0608 22.9224 38.4902 23.0178 38.8499 23.2087C39.217 23.3995 39.4959 23.6564 39.6868 23.9794C39.8776 24.3024 39.9731 24.6658 39.9731 25.0696C39.9731 25.5173 39.8703 25.9541 39.6648 26.3799C39.4592 26.7983 39.1252 27.2645 38.6627 27.7783C38.2003 28.2848 37.5469 28.9198 36.7027 29.6833H40.1492L40.0171 30.6743H35.2933V29.7383C36.2476 28.8207 36.9597 28.105 37.4295 27.5911C37.8993 27.0699 38.2296 26.6258 38.4205 26.2588C38.6113 25.8917 38.7068 25.521 38.7068 25.1466C38.7068 24.7649 38.5967 24.4639 38.3764 24.2437C38.1562 24.0235 37.8552 23.9134 37.4735 23.9134C37.1432 23.9134 36.8606 23.9758 36.6257 24.1006C36.3981 24.218 36.1669 24.4199 35.9319 24.7062L35.1391 24.0896C35.4401 23.7005 35.7851 23.4105 36.1742 23.2197C36.5633 23.0215 37.0257 22.9224 37.5616 22.9224Z" fill="url(#paint6_linear_1_61)" shape-rendering="crispEdges"/>
<path d="M43.8337 22.9224C44.3329 22.9224 44.7623 23.0178 45.122 23.2087C45.4891 23.3995 45.768 23.6564 45.9589 23.9794C46.1497 24.3024 46.2452 24.6658 46.2452 25.0696C46.2452 25.5173 46.1424 25.9541 45.9369 26.3799C45.7313 26.7983 45.3973 27.2645 44.9348 27.7783C44.4724 28.2848 43.819 28.9198 42.9748 29.6833H46.4214L46.2892 30.6743H41.5654V29.7383C42.5197 28.8207 43.2318 28.105 43.7016 27.5911C44.1714 27.0699 44.5017 26.6258 44.6926 26.2588C44.8834 25.8917 44.9789 25.521 44.9789 25.1466C44.9789 24.7649 44.8688 24.4639 44.6485 24.2437C44.4283 24.0235 44.1273 23.9134 43.7456 23.9134C43.4153 23.9134 43.1327 23.9758 42.8978 24.1006C42.6702 24.218 42.439 24.4199 42.204 24.7062L41.4112 24.0896C41.7122 23.7005 42.0572 23.4105 42.4463 23.2197C42.8354 23.0215 43.2978 22.9224 43.8337 22.9224Z" fill="url(#paint7_linear_1_61)" shape-rendering="crispEdges"/>
<path d="M58.7013 24.0015H55.7833V26.1156C56.1724 25.9174 56.5871 25.8183 57.0276 25.8183C57.4313 25.8183 57.791 25.9137 58.1067 26.1046C58.4297 26.2955 58.6793 26.5744 58.8554 26.9415C59.039 27.3012 59.1307 27.7306 59.1307 28.2298C59.1307 28.7363 59.0169 29.1878 58.7894 29.5842C58.5618 29.9732 58.2425 30.2779 57.8314 30.4981C57.4203 30.711 56.9432 30.8174 56.3999 30.8174C55.4677 30.8174 54.6932 30.4871 54.0766 29.8264L54.8033 29.1327C55.2364 29.6099 55.7503 29.8484 56.3449 29.8484C56.8147 29.8484 57.1817 29.709 57.446 29.43C57.7103 29.1437 57.8424 28.7436 57.8424 28.2298C57.8424 27.7012 57.7286 27.3195 57.5011 27.0846C57.2808 26.8424 56.9799 26.7212 56.5981 26.7212C56.422 26.7212 56.2495 26.7433 56.0806 26.7873C55.9191 26.824 55.7319 26.8864 55.519 26.9745H54.6051V23.0765H58.8665L58.7013 24.0015Z" fill="url(#paint8_linear_1_61)" shape-rendering="crispEdges"/>
<path d="M62.9583 22.9224C63.8025 22.9224 64.4449 23.2637 64.8853 23.9464C65.3257 24.6218 65.546 25.5944 65.546 26.8644C65.546 28.1343 65.3257 29.1107 64.8853 29.7934C64.4449 30.4761 63.8025 30.8174 62.9583 30.8174C62.1141 30.8174 61.4718 30.4761 61.0314 29.7934C60.5909 29.1107 60.3707 28.1343 60.3707 26.8644C60.3707 25.5944 60.5909 24.6218 61.0314 23.9464C61.4718 23.2637 62.1141 22.9224 62.9583 22.9224ZM62.9583 23.8693C62.5179 23.8693 62.1839 24.1079 61.9563 24.5851C61.7287 25.0622 61.615 25.822 61.615 26.8644C61.615 27.9215 61.7287 28.6886 61.9563 29.1657C62.1839 29.6429 62.5179 29.8815 62.9583 29.8815C63.3988 29.8815 63.7328 29.6429 63.9604 29.1657C64.1879 28.6886 64.3017 27.9215 64.3017 26.8644C64.3017 25.8146 64.1879 25.0549 63.9604 24.5851C63.7328 24.1079 63.3988 23.8693 62.9583 23.8693ZM62.9583 26.1597C63.1639 26.1597 63.3364 26.2294 63.4759 26.3689C63.6153 26.5084 63.6851 26.6772 63.6851 26.8754C63.6851 27.0809 63.6153 27.2535 63.4759 27.3929C63.3364 27.5324 63.1639 27.6021 62.9583 27.6021C62.7528 27.6021 62.5803 27.5324 62.4408 27.3929C62.3087 27.2535 62.2426 27.0809 62.2426 26.8754C62.2426 26.6772 62.3087 26.5084 62.4408 26.3689C62.5803 26.2294 62.7528 26.1597 62.9583 26.1597Z" fill="url(#paint9_linear_1_61)" shape-rendering="crispEdges"/>
<path d="M69.2304 22.9224C70.0746 22.9224 70.717 23.2637 71.1574 23.9464C71.5979 24.6218 71.8181 25.5944 71.8181 26.8644C71.8181 28.1343 71.5979 29.1107 71.1574 29.7934C70.717 30.4761 70.0746 30.8174 69.2304 30.8174C68.3862 30.8174 67.7439 30.4761 67.3035 29.7934C66.863 29.1107 66.6428 28.1343 66.6428 26.8644C66.6428 25.5944 66.863 24.6218 67.3035 23.9464C67.7439 23.2637 68.3862 22.9224 69.2304 22.9224ZM69.2304 23.8693C68.79 23.8693 68.456 24.1079 68.2284 24.5851C68.0008 25.0622 67.8871 25.822 67.8871 26.8644C67.8871 27.9215 68.0008 28.6886 68.2284 29.1657C68.456 29.6429 68.79 29.8815 69.2304 29.8815C69.6709 29.8815 70.0049 29.6429 70.2325 29.1657C70.46 28.6886 70.5738 27.9215 70.5738 26.8644C70.5738 25.8146 70.46 25.0549 70.2325 24.5851C70.0049 24.1079 69.6709 23.8693 69.2304 23.8693ZM69.2304 26.1597C69.436 26.1597 69.6085 26.2294 69.748 26.3689C69.8874 26.5084 69.9572 26.6772 69.9572 26.8754C69.9572 27.0809 69.8874 27.2535 69.748 27.3929C69.6085 27.5324 69.436 27.6021 69.2304 27.6021C69.0249 27.6021 68.8524 27.5324 68.7129 27.3929C68.5808 27.2535 68.5147 27.0809 68.5147 26.8754C68.5147 26.6772 68.5808 26.5084 68.7129 26.3689C68.8524 26.2294 69.0249 26.1597 69.2304 26.1597Z" fill="url(#paint10_linear_1_61)" shape-rendering="crispEdges"/>
<path d="M75.5025 22.9224C76.3467 22.9224 76.9891 23.2637 77.4295 23.9464C77.87 24.6218 78.0902 25.5944 78.0902 26.8644C78.0902 28.1343 77.87 29.1107 77.4295 29.7934C76.9891 30.4761 76.3467 30.8174 75.5025 30.8174C74.6583 30.8174 74.016 30.4761 73.5756 29.7934C73.1351 29.1107 72.9149 28.1343 72.9149 26.8644C72.9149 25.5944 73.1351 24.6218 73.5756 23.9464C74.016 23.2637 74.6583 22.9224 75.5025 22.9224ZM75.5025 23.8693C75.0621 23.8693 74.7281 24.1079 74.5005 24.5851C74.273 25.0622 74.1592 25.822 74.1592 26.8644C74.1592 27.9215 74.273 28.6886 74.5005 29.1657C74.7281 29.6429 75.0621 29.8815 75.5025 29.8815C75.943 29.8815 76.277 29.6429 76.5046 29.1657C76.7321 28.6886 76.8459 27.9215 76.8459 26.8644C76.8459 25.8146 76.7321 25.0549 76.5046 24.5851C76.277 24.1079 75.943 23.8693 75.5025 23.8693ZM75.5025 26.1597C75.7081 26.1597 75.8806 26.2294 76.0201 26.3689C76.1595 26.5084 76.2293 26.6772 76.2293 26.8754C76.2293 27.0809 76.1595 27.2535 76.0201 27.3929C75.8806 27.5324 75.7081 27.6021 75.5025 27.6021C75.297 27.6021 75.1245 27.5324 74.985 27.3929C74.8529 27.2535 74.7868 27.0809 74.7868 26.8754C74.7868 26.6772 74.8529 26.5084 74.985 26.3689C75.1245 26.2294 75.297 26.1597 75.5025 26.1597Z" fill="url(#paint11_linear_1_61)" shape-rendering="crispEdges"/>
<path d="M90.0618 24.0015H87.1438V26.1156C87.5329 25.9174 87.9477 25.8183 88.3881 25.8183C88.7918 25.8183 89.1515 25.9137 89.4672 26.1046C89.7902 26.2955 90.0398 26.5744 90.216 26.9415C90.3995 27.3012 90.4912 27.7306 90.4912 28.2298C90.4912 28.7363 90.3775 29.1878 90.1499 29.5842C89.9223 29.9732 89.603 30.2779 89.1919 30.4981C88.7808 30.711 88.3037 30.8174 87.7605 30.8174C86.8282 30.8174 86.0537 30.4871 85.4371 29.8264L86.1638 29.1327C86.5969 29.6099 87.1108 29.8484 87.7054 29.8484C88.1752 29.8484 88.5423 29.709 88.8065 29.43C89.0708 29.1437 89.2029 28.7436 89.2029 28.2298C89.2029 27.7012 89.0891 27.3195 88.8616 27.0846C88.6414 26.8424 88.3404 26.7212 87.9587 26.7212C87.7825 26.7212 87.61 26.7433 87.4411 26.7873C87.2796 26.824 87.0924 26.8864 86.8796 26.9745H85.9656V23.0765H90.227L90.0618 24.0015Z" fill="url(#paint12_linear_1_61)" shape-rendering="crispEdges"/>
<path d="M96.9395 28.9235H96.0366V30.6743H94.8474V28.9235H91.6982V28.0646L93.8784 22.9224L94.9135 23.3298L92.9865 27.9655H94.8584L94.9795 25.9394H96.0366V27.9655H96.9395V28.9235Z" fill="url(#paint13_linear_1_61)" shape-rendering="crispEdges"/>
<path d="M98.8071 30.454L101.714 24.0455H98.2346V23.0765H102.958V23.9574L99.9633 30.8064L98.8071 30.454Z" fill="url(#paint14_linear_1_61)" shape-rendering="crispEdges"/>
<path d="M107.315 25.6752C107.718 25.6752 108.082 25.7669 108.405 25.9505C108.728 26.134 108.985 26.4093 109.175 26.7763C109.366 27.1433 109.462 27.5875 109.462 28.1087C109.462 28.6445 109.352 29.118 109.131 29.5291C108.918 29.9402 108.621 30.2595 108.239 30.4871C107.865 30.7073 107.436 30.8174 106.951 30.8174C106.041 30.8174 105.373 30.4908 104.947 29.8374C104.521 29.1767 104.308 28.2775 104.308 27.1397C104.308 26.2955 104.426 25.5577 104.661 24.9264C104.903 24.2878 105.252 23.7959 105.707 23.4509C106.162 23.0985 106.698 22.9224 107.315 22.9224C107.894 22.9224 108.416 23.0765 108.878 23.3848L108.405 24.1776C108.067 23.9648 107.704 23.8583 107.315 23.8583C106.801 23.8583 106.39 24.1006 106.081 24.5851C105.773 25.0622 105.604 25.7229 105.575 26.5671C106.023 25.9725 106.602 25.6752 107.315 25.6752ZM106.962 29.8815C107.373 29.8815 107.685 29.7273 107.898 29.419C108.111 29.1107 108.217 28.6923 108.217 28.1637C108.217 27.114 107.832 26.5891 107.061 26.5891C106.768 26.5891 106.492 26.6699 106.235 26.8314C105.986 26.9855 105.769 27.2021 105.586 27.481C105.6 28.3105 105.714 28.9198 105.927 29.3089C106.14 29.6906 106.485 29.8815 106.962 29.8815Z" fill="url(#paint15_linear_1_61)" shape-rendering="crispEdges"/>
<path d="M119.407 22.9224C120.251 22.9224 120.894 23.2637 121.334 23.9464C121.775 24.6218 121.995 25.5944 121.995 26.8644C121.995 28.1343 121.775 29.1107 121.334 29.7934C120.894 30.4761 120.251 30.8174 119.407 30.8174C118.563 30.8174 117.921 30.4761 117.48 29.7934C117.04 29.1107 116.82 28.1343 116.82 26.8644C116.82 25.5944 117.04 24.6218 117.48 23.9464C117.921 23.2637 118.563 22.9224 119.407 22.9224ZM119.407 23.8693C118.967 23.8693 118.633 24.1079 118.405 24.5851C118.178 25.0622 118.064 25.822 118.064 26.8644C118.064 27.9215 118.178 28.6886 118.405 29.1657C118.633 29.6429 118.967 29.8815 119.407 29.8815C119.848 29.8815 120.182 29.6429 120.409 29.1657C120.637 28.6886 120.751 27.9215 120.751 26.8644C120.751 25.8146 120.637 25.0549 120.409 24.5851C120.182 24.1079 119.848 23.8693 119.407 23.8693ZM119.407 26.1597C119.613 26.1597 119.785 26.2294 119.925 26.3689C120.064 26.5084 120.134 26.6772 120.134 26.8754C120.134 27.0809 120.064 27.2535 119.925 27.3929C119.785 27.5324 119.613 27.6021 119.407 27.6021C119.202 27.6021 119.029 27.5324 118.89 27.3929C118.758 27.2535 118.692 27.0809 118.692 26.8754C118.692 26.6772 118.758 26.5084 118.89 26.3689C119.029 26.2294 119.202 26.1597 119.407 26.1597Z" fill="url(#paint16_linear_1_61)" shape-rendering="crispEdges"/>
<path d="M125.679 22.9224C126.524 22.9224 127.166 23.2637 127.606 23.9464C128.047 24.6218 128.267 25.5944 128.267 26.8644C128.267 28.1343 128.047 29.1107 127.606 29.7934C127.166 30.4761 126.524 30.8174 125.679 30.8174C124.835 30.8174 124.193 30.4761 123.752 29.7934C123.312 29.1107 123.092 28.1343 123.092 26.8644C123.092 25.5944 123.312 24.6218 123.752 23.9464C124.193 23.2637 124.835 22.9224 125.679 22.9224ZM125.679 23.8693C125.239 23.8693 124.905 24.1079 124.677 24.5851C124.45 25.0622 124.336 25.822 124.336 26.8644C124.336 27.9215 124.45 28.6886 124.677 29.1657C124.905 29.6429 125.239 29.8815 125.679 29.8815C126.12 29.8815 126.454 29.6429 126.681 29.1657C126.909 28.6886 127.023 27.9215 127.023 26.8644C127.023 25.8146 126.909 25.0549 126.681 24.5851C126.454 24.1079 126.12 23.8693 125.679 23.8693ZM125.679 26.1597C125.885 26.1597 126.057 26.2294 126.197 26.3689C126.336 26.5084 126.406 26.6772 126.406 26.8754C126.406 27.0809 126.336 27.2535 126.197 27.3929C126.057 27.5324 125.885 27.6021 125.679 27.6021C125.474 27.6021 125.301 27.5324 125.162 27.3929C125.03 27.2535 124.964 27.0809 124.964 26.8754C124.964 26.6772 125.03 26.5084 125.162 26.3689C125.301 26.2294 125.474 26.1597 125.679 26.1597Z" fill="url(#paint17_linear_1_61)" shape-rendering="crispEdges"/>
<path d="M131.951 22.9224C132.796 22.9224 133.438 23.2637 133.878 23.9464C134.319 24.6218 134.539 25.5944 134.539 26.8644C134.539 28.1343 134.319 29.1107 133.878 29.7934C133.438 30.4761 132.796 30.8174 131.951 30.8174C131.107 30.8174 130.465 30.4761 130.024 29.7934C129.584 29.1107 129.364 28.1343 129.364 26.8644C129.364 25.5944 129.584 24.6218 130.024 23.9464C130.465 23.2637 131.107 22.9224 131.951 22.9224ZM131.951 23.8693C131.511 23.8693 131.177 24.1079 130.949 24.5851C130.722 25.0622 130.608 25.822 130.608 26.8644C130.608 27.9215 130.722 28.6886 130.949 29.1657C131.177 29.6429 131.511 29.8815 131.951 29.8815C132.392 29.8815 132.726 29.6429 132.953 29.1657C133.181 28.6886 133.295 27.9215 133.295 26.8644C133.295 25.8146 133.181 25.0549 132.953 24.5851C132.726 24.1079 132.392 23.8693 131.951 23.8693ZM131.951 26.1597C132.157 26.1597 132.33 26.2294 132.469 26.3689C132.608 26.5084 132.678 26.6772 132.678 26.8754C132.678 27.0809 132.608 27.2535 132.469 27.3929C132.33 27.5324 132.157 27.6021 131.951 27.6021C131.746 27.6021 131.573 27.5324 131.434 27.3929C131.302 27.2535 131.236 27.0809 131.236 26.8754C131.236 26.6772 131.302 26.5084 131.434 26.3689C131.573 26.2294 131.746 26.1597 131.951 26.1597Z" fill="url(#paint18_linear_1_61)" shape-rendering="crispEdges"/>
<path d="M137.893 22.9224C138.385 22.9224 138.815 23.0105 139.182 23.1866C139.549 23.3555 139.831 23.5867 140.029 23.8803C140.228 24.174 140.327 24.497 140.327 24.8493C140.327 25.3045 140.184 25.6899 139.897 26.0055C139.618 26.3212 139.259 26.5304 138.818 26.6332C139.332 26.6845 139.75 26.8681 140.073 27.1837C140.404 27.4994 140.569 27.9398 140.569 28.5051C140.569 28.9382 140.455 29.3309 140.228 29.6833C140 30.0356 139.677 30.3146 139.259 30.5201C138.84 30.7183 138.359 30.8174 137.816 30.8174C137.324 30.8174 136.862 30.7293 136.429 30.5532C135.996 30.3696 135.636 30.1054 135.35 29.7603L136.109 29.0997C136.315 29.3493 136.561 29.5364 136.847 29.6612C137.133 29.786 137.434 29.8484 137.75 29.8484C138.227 29.8484 138.602 29.7236 138.873 29.474C139.152 29.2245 139.292 28.8868 139.292 28.461C139.292 27.5728 138.8 27.1287 137.816 27.1287H137.166L137.31 26.2257H137.772C138.154 26.2257 138.469 26.123 138.719 25.9174C138.976 25.7119 139.104 25.4146 139.104 25.0255C139.104 24.6658 138.983 24.3869 138.741 24.1887C138.499 23.9831 138.183 23.8803 137.794 23.8803C137.486 23.8803 137.207 23.9354 136.957 24.0455C136.708 24.1556 136.462 24.3281 136.22 24.563L135.57 23.8583C136.216 23.2343 136.99 22.9224 137.893 22.9224Z" fill="url(#paint19_linear_1_61)" shape-rendering="crispEdges"/>
</g>
<g filter="url(#filter3_i_1_61)">
<path d="M201.077 113.909C201.077 119.482 196.56 123.999 190.988 123.999C185.416 123.999 180.899 119.482 180.899 113.909C180.899 108.337 185.416 103.82 190.988 103.82C196.56 103.82 201.077 108.337 201.077 113.909Z" fill="white" fill-opacity="0.04"/>
</g>
<g filter="url(#filter4_i_1_61)">
<path fill-rule="evenodd" clip-rule="evenodd" d="M190.988 123.638C196.361 123.638 200.717 119.283 200.717 113.909C200.717 108.536 196.361 104.181 190.988 104.181C185.615 104.181 181.259 108.536 181.259 113.909C181.259 119.283 185.615 123.638 190.988 123.638ZM190.988 123.999C196.56 123.999 201.077 119.482 201.077 113.909C201.077 108.337 196.56 103.82 190.988 103.82C185.416 103.82 180.899 108.337 180.899 113.909C180.899 119.482 185.416 123.999 190.988 123.999Z" fill="white" fill-opacity="0.53"/>
</g>
<g filter="url(#filter5_i_1_61)">
<path d="M213.688 113.909C213.688 119.482 209.171 123.999 203.599 123.999C198.027 123.999 193.51 119.482 193.51 113.909C193.51 108.337 198.027 103.82 203.599 103.82C209.171 103.82 213.688 108.337 213.688 113.909Z" fill="white" fill-opacity="0.04"/>
</g>
<g filter="url(#filter6_i_1_61)">
<path fill-rule="evenodd" clip-rule="evenodd" d="M203.599 123.638C208.972 123.638 213.328 119.283 213.328 113.909C213.328 108.536 208.972 104.181 203.599 104.181C198.226 104.181 193.871 108.536 193.871 113.909C193.871 119.283 198.226 123.638 203.599 123.638ZM203.599 123.999C209.171 123.999 213.688 119.482 213.688 113.909C213.688 108.337 209.171 103.82 203.599 103.82C198.027 103.82 193.51 108.337 193.51 113.909C193.51 119.482 198.027 123.999 203.599 123.999Z" fill="white" fill-opacity="0.53"/>
</g>
</g>
<defs>
<filter id="filter0_b_1_61" x="-30" y="-30" width="292.809" height="200" filterUnits="userSpaceOnUse" color-interpolation-filters="sRGB">
<feFlood flood-opacity="0" result="BackgroundImageFix"/>
<feGaussianBlur in="BackgroundImage" stdDeviation="15"/>
<feComposite in2="SourceAlpha" operator="in" result="effect1_backgroundBlur_1_61"/>
<feBlend mode="normal" in="SourceGraphic" in2="effect1_backgroundBlur_1_61" result="shape"/>
</filter>
<filter id="filter1_bi_1_61" x="12.0225" y="34.8315" width="45.9551" height="40.4495" filterUnits="userSpaceOnUse" color-interpolation-filters="sRGB">
<feFlood flood-opacity="0" result="BackgroundImageFix"/>
<feGaussianBlur in="BackgroundImage" stdDeviation="5"/>
<feComposite in2="SourceAlpha" operator="in" result="effect1_backgroundBlur_1_61"/>
<feBlend mode="normal" in="SourceGraphic" in2="effect1_backgroundBlur_1_61" result="shape"/>
<feColorMatrix in="SourceAlpha" type="matrix" values="0 0 0 0 0 0 0 0 0 0 0 0 0 0 0 0 0 0 127 0" result="hardAlpha"/>
<feOffset dx="1" dy="1"/>
<feGaussianBlur stdDeviation="0.5"/>
<feComposite in2="hardAlpha" operator="arithmetic" k2="-1" k3="1"/>
<feColorMatrix type="matrix" values="0 0 0 0 0 0 0 0 0 0 0 0 0 0 0 0 0 0 0.25 0"/>
<feBlend mode="normal" in2="shape" result="effect2_innerShadow_1_61"/>
</filter>
<filter id="filter2_di_1_61" x="21.4518" y="21.9224" width="122.117" height="9.89502" filterUnits="userSpaceOnUse" color-interpolation-filters="sRGB">
<feFlood flood-opacity="0" result="BackgroundImageFix"/>
<feColorMatrix in="SourceAlpha" type="matrix" values="0 0 0 0 0 0 0 0 0 0 0 0 0 0 0 0 0 0 127 0" result="hardAlpha"/>
<feOffset dx="2"/>
<feGaussianBlur stdDeviation="0.5"/>
<feComposite in2="hardAlpha" operator="out"/>
<feColorMatrix type="matrix" values="0 0 0 0 0 0 0 0 0 0 0 0 0 0 0 0 0 0 0.21 0"/>
<feBlend mode="normal" in2="BackgroundImageFix" result="effect1_dropShadow_1_61"/>
<feBlend mode="normal" in="SourceGraphic" in2="effect1_dropShadow_1_61" result="shape"/>
<feColorMatrix in="SourceAlpha" type="matrix" values="0 0 0 0 0 0 0 0 0 0 0 0 0 0 0 0 0 0 127 0" result="hardAlpha"/>
<feOffset dx="-1"/>
<feGaussianBlur stdDeviation="0.5"/>
<feComposite in2="hardAlpha" operator="arithmetic" k2="-1" k3="1"/>
<feColorMatrix type="matrix" values="0 0 0 0 0 0 0 0 0 0 0 0 0 0 0 0 0 0 0.23 0"/>
<feBlend mode="normal" in2="shape" result="effect2_innerShadow_1_61"/>
</filter>
<filter id="filter3_i_1_61" x="180.899" y="103.82" width="23.1783" height="20.1782" filterUnits="userSpaceOnUse" color-interpolation-filters="sRGB">
<feFlood flood-opacity="0" result="BackgroundImageFix"/>
<feBlend mode="normal" in="SourceGraphic" in2="BackgroundImageFix" result="shape"/>
<feColorMatrix in="SourceAlpha" type="matrix" values="0 0 0 0 0 0 0 0 0 0 0 0 0 0 0 0 0 0 127 0" result="hardAlpha"/>
<feOffset dx="3"/>
<feGaussianBlur stdDeviation="4"/>
<feComposite in2="hardAlpha" operator="arithmetic" k2="-1" k3="1"/>
<feColorMatrix type="matrix" values="0 0 0 0 0 0 0 0 0 0 0 0 0 0 0 0 0 0 0.19 0"/>
<feBlend mode="normal" in2="shape" result="effect1_innerShadow_1_61"/>
</filter>
<filter id="filter4_i_1_61" x="180.899" y="103.82" width="23.1783" height="20.1782" filterUnits="userSpaceOnUse" color-interpolation-filters="sRGB">
<feFlood flood-opacity="0" result="BackgroundImageFix"/>
<feBlend mode="normal" in="SourceGraphic" in2="BackgroundImageFix" result="shape"/>
<feColorMatrix in="SourceAlpha" type="matrix" values="0 0 0 0 0 0 0 0 0 0 0 0 0 0 0 0 0 0 127 0" result="hardAlpha"/>
<feOffset dx="3"/>
<feGaussianBlur stdDeviation="4"/>
<feComposite in2="hardAlpha" operator="arithmetic" k2="-1" k3="1"/>
<feColorMatrix type="matrix" values="0 0 0 0 0 0 0 0 0 0 0 0 0 0 0 0 0 0 0.19 0"/>
<feBlend mode="normal" in2="shape" result="effect1_innerShadow_1_61"/>
</filter>
<filter id="filter5_i_1_61" x="193.51" y="103.82" width="23.1783" height="20.1782" filterUnits="userSpaceOnUse" color-interpolation-filters="sRGB">
<feFlood flood-opacity="0" result="BackgroundImageFix"/>
<feBlend mode="normal" in="SourceGraphic" in2="BackgroundImageFix" result="shape"/>
<feColorMatrix in="SourceAlpha" type="matrix" values="0 0 0 0 0 0 0 0 0 0 0 0 0 0 0 0 0 0 127 0" result="hardAlpha"/>
<feOffset dx="3"/>
<feGaussianBlur stdDeviation="4"/>
<feComposite in2="hardAlpha" operator="arithmetic" k2="-1" k3="1"/>
<feColorMatrix type="matrix" values="0 0 0 0 0 0 0 0 0 0 0 0 0 0 0 0 0 0 0.19 0"/>
<feBlend mode="normal" in2="shape" result="effect1_innerShadow_1_61"/>
</filter>
<filter id="filter6_i_1_61" x="193.51" y="103.82" width="23.1783" height="20.1782" filterUnits="userSpaceOnUse" color-interpolation-filters="sRGB">
<feFlood flood-opacity="0" result="BackgroundImageFix"/>
<feBlend mode="normal" in="SourceGraphic" in2="BackgroundImageFix" result="shape"/>
<feColorMatrix in="SourceAlpha" type="matrix" values="0 0 0 0 0 0 0 0 0 0 0 0 0 0 0 0 0 0 127 0" result="hardAlpha"/>
<feOffset dx="3"/>
<feGaussianBlur stdDeviation="4"/>
<feComposite in2="hardAlpha" operator="arithmetic" k2="-1" k3="1"/>
<feColorMatrix type="matrix" values="0 0 0 0 0 0 0 0 0 0 0 0 0 0 0 0 0 0 0.19 0"/>
<feBlend mode="normal" in2="shape" result="effect1_innerShadow_1_61"/>
</filter>
<linearGradient id="paint0_linear_1_61" x1="23.8619" y1="-1.40292" x2="218.365" y2="158.546" gradientUnits="userSpaceOnUse">
<stop stop-color="white"/>
<stop offset="1" stop-color="white" stop-opacity="0"/>
</linearGradient>
<linearGradient id="paint1_linear_1_61" x1="28.2075" y1="-2.14425" x2="195.836" y2="150.641" gradientUnits="userSpaceOnUse">
<stop stop-color="white"/>
<stop offset="1" stop-color="white" stop-opacity="0.17"/>
</linearGradient>
<linearGradient id="paint2_linear_1_61" x1="22.0225" y1="44.8315" x2="47.9775" y2="65.281" gradientUnits="userSpaceOnUse">
<stop stop-color="white" stop-opacity="0"/>
<stop offset="1" stop-color="white" stop-opacity="0.47"/>
</linearGradient>
<linearGradient id="paint3_linear_1_61" x1="26.7416" y1="47.5844" x2="51.1236" y2="65.281" gradientUnits="userSpaceOnUse">
<stop stop-color="white" stop-opacity="0.44"/>
<stop offset="1" stop-color="white" stop-opacity="0"/>
</linearGradient>
<linearGradient id="paint4_linear_1_61" x1="20.8881" y1="-3.19392" x2="166.504" y2="16.9834" gradientUnits="userSpaceOnUse">
<stop stop-color="#F5F5F5"/>
<stop offset="1" stop-color="#F9F9F9" stop-opacity="0.49"/>
</linearGradient>
<linearGradient id="paint5_linear_1_61" x1="20.8881" y1="-3.19392" x2="166.504" y2="16.9834" gradientUnits="userSpaceOnUse">
<stop stop-color="#F5F5F5"/>
<stop offset="1" stop-color="#F9F9F9" stop-opacity="0.49"/>
</linearGradient>
<linearGradient id="paint6_linear_1_61" x1="20.8881" y1="-3.19392" x2="166.504" y2="16.9834" gradientUnits="userSpaceOnUse">
<stop stop-color="#F5F5F5"/>
<stop offset="1" stop-color="#F9F9F9" stop-opacity="0.49"/>
</linearGradient>
<linearGradient id="paint7_linear_1_61" x1="20.8881" y1="-3.19392" x2="166.504" y2="16.9834" gradientUnits="userSpaceOnUse">
<stop stop-color="#F5F5F5"/>
<stop offset="1" stop-color="#F9F9F9" stop-opacity="0.49"/>
</linearGradient>
<linearGradient id="paint8_linear_1_61" x1="20.8881" y1="-3.19392" x2="166.504" y2="16.9834" gradientUnits="userSpaceOnUse">
<stop stop-color="#F5F5F5"/>
<stop offset="1" stop-color="#F9F9F9" stop-opacity="0.49"/>
</linearGradient>
<linearGradient id="paint9_linear_1_61" x1="20.8881" y1="-3.19392" x2="166.504" y2="16.9834" gradientUnits="userSpaceOnUse">
<stop stop-color="#F5F5F5"/>
<stop offset="1" stop-color="#F9F9F9" stop-opacity="0.49"/>
</linearGradient>
<linearGradient id="paint10_linear_1_61" x1="20.8881" y1="-3.19392" x2="166.504" y2="16.9834" gradientUnits="userSpaceOnUse">
<stop stop-color="#F5F5F5"/>
<stop offset="1" stop-color="#F9F9F9" stop-opacity="0.49"/>
</linearGradient>
<linearGradient id="paint11_linear_1_61" x1="20.8881" y1="-3.19392" x2="166.504" y2="16.9834" gradientUnits="userSpaceOnUse">
<stop stop-color="#F5F5F5"/>
<stop offset="1" stop-color="#F9F9F9" stop-opacity="0.49"/>
</linearGradient>
<linearGradient id="paint12_linear_1_61" x1="20.8881" y1="-3.19392" x2="166.504" y2="16.9834" gradientUnits="userSpaceOnUse">
<stop stop-color="#F5F5F5"/>
<stop offset="1" stop-color="#F9F9F9" stop-opacity="0.49"/>
</linearGradient>
<linearGradient id="paint13_linear_1_61" x1="20.8881" y1="-3.19392" x2="166.504" y2="16.9834" gradientUnits="userSpaceOnUse">
<stop stop-color="#F5F5F5"/>
<stop offset="1" stop-color="#F9F9F9" stop-opacity="0.49"/>
</linearGradient>
<linearGradient id="paint14_linear_1_61" x1="20.8881" y1="-3.19392" x2="166.504" y2="16.9834" gradientUnits="userSpaceOnUse">
<stop stop-color="#F5F5F5"/>
<stop offset="1" stop-color="#F9F9F9" stop-opacity="0.49"/>
</linearGradient>
<linearGradient id="paint15_linear_1_61" x1="20.8881" y1="-3.19392" x2="166.504" y2="16.9834" gradientUnits="userSpaceOnUse">
<stop stop-color="#F5F5F5"/>
<stop offset="1" stop-color="#F9F9F9" stop-opacity="0.49"/>
</linearGradient>
<linearGradient id="paint16_linear_1_61" x1="20.8881" y1="-3.19392" x2="166.504" y2="16.9834" gradientUnits="userSpaceOnUse">
<stop stop-color="#F5F5F5"/>
<stop offset="1" stop-color="#F9F9F9" stop-opacity="0.49"/>
</linearGradient>
<linearGradient id="paint17_linear_1_61" x1="20.8881" y1="-3.19392" x2="166.504" y2="16.9834" gradientUnits="userSpaceOnUse">
<stop stop-color="#F5F5F5"/>
<stop offset="1" stop-color="#F9F9F9" stop-opacity="0.49"/>
</linearGradient>
<linearGradient id="paint18_linear_1_61" x1="20.8881" y1="-3.19392" x2="166.504" y2="16.9834" gradientUnits="userSpaceOnUse">
<stop stop-color="#F5F5F5"/>
<stop offset="1" stop-color="#F9F9F9" stop-opacity="0.49"/>
</linearGradient>
<linearGradient id="paint19_linear_1_61" x1="20.8881" y1="-3.19392" x2="166.504" y2="16.9834" gradientUnits="userSpaceOnUse">
<stop stop-color="#F5F5F5"/>
<stop offset="1" stop-color="#F9F9F9" stop-opacity="0.49"/>
</linearGradient>
</defs>
</svg>
