<svg width="233" height="140" viewBox="0 0 233 140" fill="none" xmlns="http://www.w3.org/2000/svg">
<g filter="url(#filter0_b_1_11)">
<rect width="232.809" height="140" rx="16" fill="url(#paint0_linear_1_11)" fill-opacity="0.12"/>
<rect x="0.5" y="0.5" width="231.809" height="139" rx="15.5" stroke="url(#paint1_linear_1_11)" stroke-opacity="0.2"/>
</g>
<g filter="url(#filter1_bi_1_11)">
<path d="M44.2739 44.8315H25.7261C23.6806 44.8315 22.0225 46.4801 22.0225 48.5136V61.5989C22.0225 63.6325 23.6806 65.281 25.7261 65.281H44.2739C46.3194 65.281 47.9775 63.6325 47.9775 61.5989V48.5136C47.9775 46.4801 46.3194 44.8315 44.2739 44.8315Z" fill="white" fill-opacity="0.21"/>
<path d="M25.7261 45.3315H44.2739C46.046 45.3315 47.4775 46.759 47.4775 48.5136V61.5989C47.4775 63.3536 46.046 64.781 44.2739 64.781H25.7261C23.954 64.781 22.5225 63.3536 22.5225 61.5989V48.5136C22.5225 46.759 23.954 45.3315 25.7261 45.3315Z" stroke="url(#paint2_linear_1_11)"/>
</g>
<path d="M47.9775 51.2579V50.7819H43.1887V44.8315H42.7108V50.7819H38.8977C38.6507 49.9826 38.1721 49.2738 37.522 48.7445C36.872 48.2151 36.0794 47.8889 35.2439 47.8067V44.8315H34.766V47.8067C33.8725 47.8228 33.0069 48.1189 32.292 48.653C31.5771 49.1871 31.0493 49.932 30.7837 50.7819H27.2593V44.8315H26.7814V50.7819H22.0225V51.2579H26.8113V57.962H22.0225V58.4281H26.8113V65.281H27.2593V58.4281H30.6542C30.8673 59.3533 31.3848 60.1809 32.1245 60.7793C32.8641 61.3777 33.7834 61.7126 34.7362 61.7306V65.281H35.224V61.7008C36.115 61.6159 36.9567 61.2542 37.6301 60.667C38.3036 60.0798 38.7749 59.2966 38.9774 58.4281H42.7308V65.281H43.1887V58.4281H47.9377V57.962H45.1799V51.2579H47.9775ZM30.6144 57.962H27.2593V51.2579H30.6443C30.5971 51.5199 30.5704 51.7852 30.5646 52.0513C30.566 53.0454 30.9185 54.0074 31.5602 54.7687C30.917 55.5291 30.5643 56.4916 30.5646 57.486C30.5646 57.6248 30.6045 57.8033 30.6144 57.962ZM34.8457 61.2645C34.1072 61.2682 33.3838 61.0566 32.7646 60.6557C32.1454 60.2549 31.6575 59.6822 31.3612 59.0085C31.0648 58.3347 30.9728 57.5892 31.0967 56.8641C31.2205 56.1389 31.5547 55.4656 32.058 54.9273L32.2074 54.7687L32.058 54.6497C31.5531 54.1098 31.2174 53.4348 31.0922 52.7075C30.9671 51.9803 31.0578 51.2324 31.3533 50.5558C31.6489 49.8792 32.1363 49.3033 32.7558 48.8988C33.3753 48.4944 34.1 48.2789 34.8407 48.2789C35.5814 48.2789 36.306 48.4944 36.9256 48.8988C37.5451 49.3033 38.0325 49.8792 38.3281 50.5558C38.6236 51.2324 38.7143 51.9803 38.5891 52.7075C38.464 53.4348 38.1283 54.1098 37.6234 54.6497L37.474 54.8083L37.6234 54.967C38.1261 55.5047 38.4601 56.177 38.5843 56.9013C38.7084 57.6255 38.6173 58.3702 38.3222 59.0436C38.027 59.7169 37.5407 60.2897 36.923 60.6913C36.3054 61.0929 35.5833 61.306 34.8457 61.3041V61.2645ZM44.6722 57.962H39.067C39.067 57.8033 39.067 57.6447 39.067 57.486C39.0673 56.4916 38.7147 55.5291 38.0714 54.7687C38.7132 54.0074 39.0656 53.0454 39.067 52.0513C39.0612 51.7852 39.0346 51.5199 38.9873 51.2579H44.6224L44.6722 57.962Z" fill="url(#paint3_linear_1_11)"/>
<g filter="url(#filter2_di_1_11)">
<path d="M27.3409 24.0015H24.4229V26.1156C24.812 25.9174 25.2267 25.8183 25.6672 25.8183C26.0709 25.8183 26.4306 25.9137 26.7463 26.1046C27.0693 26.2955 27.3189 26.5744 27.4951 26.9415C27.6786 27.3012 27.7703 27.7306 27.7703 28.2298C27.7703 28.7363 27.6566 29.1878 27.429 29.5842C27.2014 29.9732 26.8821 30.2779 26.471 30.4981C26.0599 30.711 25.5828 30.8174 25.0396 30.8174C24.1073 30.8174 23.3328 30.4871 22.7162 29.8264L23.4429 29.1327C23.876 29.6099 24.3899 29.8484 24.9845 29.8484C25.4543 29.8484 25.8214 29.709 26.0856 29.43C26.3499 29.1437 26.482 28.7436 26.482 28.2298C26.482 27.7012 26.3682 27.3195 26.1407 27.0846C25.9205 26.8424 25.6195 26.7212 25.2378 26.7212C25.0616 26.7212 24.8891 26.7433 24.7202 26.7873C24.5587 26.824 24.3715 26.8864 24.1587 26.9745H23.2447V23.0765H27.5061L27.3409 24.0015Z" fill="url(#paint4_linear_1_11)" shape-rendering="crispEdges"/>
<path d="M34.2186 28.9235H33.3157V30.6743H32.1265V28.9235H28.9773V28.0646L31.1575 22.9224L32.1926 23.3298L30.2656 27.9655H32.1375L32.2586 25.9394H33.3157V27.9655H34.2186V28.9235Z" fill="url(#paint5_linear_1_11)" shape-rendering="crispEdges"/>
<path d="M40.4907 28.9235H39.5878V30.6743H38.3986V28.9235H35.2494V28.0646L37.4296 22.9224L38.4647 23.3298L36.5377 27.9655H38.4096L38.5307 25.9394H39.5878V27.9655H40.4907V28.9235Z" fill="url(#paint6_linear_1_11)" shape-rendering="crispEdges"/>
<path d="M43.8118 22.9224C44.3037 22.9224 44.7331 23.0105 45.1001 23.1866C45.4672 23.3555 45.7498 23.5867 45.948 23.8803C46.1462 24.174 46.2453 24.497 46.2453 24.8493C46.2453 25.3045 46.1022 25.6899 45.8159 26.0055C45.5369 26.3212 45.1772 26.5304 44.7368 26.6332C45.2506 26.6845 45.6691 26.8681 45.992 27.1837C46.3224 27.4994 46.4876 27.9398 46.4876 28.5051C46.4876 28.9382 46.3738 29.3309 46.1462 29.6833C45.9186 30.0356 45.5956 30.3146 45.1772 30.5201C44.7588 30.7183 44.278 30.8174 43.7347 30.8174C43.2429 30.8174 42.7804 30.7293 42.3473 30.5532C41.9142 30.3696 41.5545 30.1054 41.2682 29.7603L42.028 29.0997C42.2335 29.3493 42.4795 29.5364 42.7658 29.6612C43.052 29.786 43.353 29.8484 43.6687 29.8484C44.1458 29.8484 44.5202 29.7236 44.7918 29.474C45.0708 29.2245 45.2102 28.8868 45.2102 28.461C45.2102 27.5728 44.7184 27.1287 43.7347 27.1287H43.0851L43.2282 26.2257H43.6907C44.0724 26.2257 44.3881 26.123 44.6377 25.9174C44.8946 25.7119 45.0231 25.4146 45.0231 25.0255C45.0231 24.6658 44.9019 24.3869 44.6597 24.1887C44.4174 23.9831 44.1018 23.8803 43.7127 23.8803C43.4044 23.8803 43.1255 23.9354 42.8759 24.0455C42.6263 24.1556 42.3804 24.3281 42.1381 24.563L41.4885 23.8583C42.1344 23.2343 42.9089 22.9224 43.8118 22.9224Z" fill="url(#paint7_linear_1_11)" shape-rendering="crispEdges"/>
<path d="M54.9025 30.454L57.8095 24.0455H54.33V23.0765H59.0538V23.9574L56.0587 30.8064L54.9025 30.454Z" fill="url(#paint8_linear_1_11)" shape-rendering="crispEdges"/>
<path d="M62.9585 22.9224C63.8027 22.9224 64.445 23.2637 64.8854 23.9464C65.3259 24.6218 65.5461 25.5944 65.5461 26.8644C65.5461 28.1343 65.3259 29.1107 64.8854 29.7934C64.445 30.4761 63.8027 30.8174 62.9585 30.8174C62.1143 30.8174 61.472 30.4761 61.0315 29.7934C60.5911 29.1107 60.3708 28.1343 60.3708 26.8644C60.3708 25.5944 60.5911 24.6218 61.0315 23.9464C61.472 23.2637 62.1143 22.9224 62.9585 22.9224ZM62.9585 23.8693C62.518 23.8693 62.184 24.1079 61.9564 24.5851C61.7289 25.0622 61.6151 25.822 61.6151 26.8644C61.6151 27.9215 61.7289 28.6886 61.9564 29.1657C62.184 29.6429 62.518 29.8815 62.9585 29.8815C63.3989 29.8815 63.7329 29.6429 63.9605 29.1657C64.1881 28.6886 64.3018 27.9215 64.3018 26.8644C64.3018 25.8146 64.1881 25.0549 63.9605 24.5851C63.7329 24.1079 63.3989 23.8693 62.9585 23.8693ZM62.9585 26.1597C63.164 26.1597 63.3365 26.2294 63.476 26.3689C63.6155 26.5084 63.6852 26.6772 63.6852 26.8754C63.6852 27.0809 63.6155 27.2535 63.476 27.3929C63.3365 27.5324 63.164 27.6021 62.9585 27.6021C62.7529 27.6021 62.5804 27.5324 62.4409 27.3929C62.3088 27.2535 62.2427 27.0809 62.2427 26.8754C62.2427 26.6772 62.3088 26.5084 62.4409 26.3689C62.5804 26.2294 62.7529 26.1597 62.9585 26.1597Z" fill="url(#paint9_linear_1_11)" shape-rendering="crispEdges"/>
<path d="M69.2306 22.9224C70.0748 22.9224 70.7171 23.2637 71.1575 23.9464C71.598 24.6218 71.8182 25.5944 71.8182 26.8644C71.8182 28.1343 71.598 29.1107 71.1575 29.7934C70.7171 30.4761 70.0748 30.8174 69.2306 30.8174C68.3864 30.8174 67.7441 30.4761 67.3036 29.7934C66.8632 29.1107 66.6429 28.1343 66.6429 26.8644C66.6429 25.5944 66.8632 24.6218 67.3036 23.9464C67.7441 23.2637 68.3864 22.9224 69.2306 22.9224ZM69.2306 23.8693C68.7901 23.8693 68.4561 24.1079 68.2285 24.5851C68.001 25.0622 67.8872 25.822 67.8872 26.8644C67.8872 27.9215 68.001 28.6886 68.2285 29.1657C68.4561 29.6429 68.7901 29.8815 69.2306 29.8815C69.671 29.8815 70.005 29.6429 70.2326 29.1657C70.4602 28.6886 70.5739 27.9215 70.5739 26.8644C70.5739 25.8146 70.4602 25.0549 70.2326 24.5851C70.005 24.1079 69.671 23.8693 69.2306 23.8693ZM69.2306 26.1597C69.4361 26.1597 69.6086 26.2294 69.7481 26.3689C69.8876 26.5084 69.9573 26.6772 69.9573 26.8754C69.9573 27.0809 69.8876 27.2535 69.7481 27.3929C69.6086 27.5324 69.4361 27.6021 69.2306 27.6021C69.025 27.6021 68.8525 27.5324 68.713 27.3929C68.5809 27.2535 68.5148 27.0809 68.5148 26.8754C68.5148 26.6772 68.5809 26.5084 68.713 26.3689C68.8525 26.2294 69.025 26.1597 69.2306 26.1597Z" fill="url(#paint10_linear_1_11)" shape-rendering="crispEdges"/>
<path d="M75.5027 22.9224C76.3469 22.9224 76.9892 23.2637 77.4296 23.9464C77.8701 24.6218 78.0903 25.5944 78.0903 26.8644C78.0903 28.1343 77.8701 29.1107 77.4296 29.7934C76.9892 30.4761 76.3469 30.8174 75.5027 30.8174C74.6585 30.8174 74.0162 30.4761 73.5757 29.7934C73.1353 29.1107 72.915 28.1343 72.915 26.8644C72.915 25.5944 73.1353 24.6218 73.5757 23.9464C74.0162 23.2637 74.6585 22.9224 75.5027 22.9224ZM75.5027 23.8693C75.0622 23.8693 74.7282 24.1079 74.5007 24.5851C74.2731 25.0622 74.1593 25.822 74.1593 26.8644C74.1593 27.9215 74.2731 28.6886 74.5007 29.1657C74.7282 29.6429 75.0622 29.8815 75.5027 29.8815C75.9431 29.8815 76.2771 29.6429 76.5047 29.1657C76.7323 28.6886 76.846 27.9215 76.846 26.8644C76.846 25.8146 76.7323 25.0549 76.5047 24.5851C76.2771 24.1079 75.9431 23.8693 75.5027 23.8693ZM75.5027 26.1597C75.7082 26.1597 75.8807 26.2294 76.0202 26.3689C76.1597 26.5084 76.2294 26.6772 76.2294 26.8754C76.2294 27.0809 76.1597 27.2535 76.0202 27.3929C75.8807 27.5324 75.7082 27.6021 75.5027 27.6021C75.2971 27.6021 75.1246 27.5324 74.9851 27.3929C74.853 27.2535 74.7869 27.0809 74.7869 26.8754C74.7869 26.6772 74.853 26.5084 74.9851 26.3689C75.1246 26.2294 75.2971 26.1597 75.5027 26.1597Z" fill="url(#paint11_linear_1_11)" shape-rendering="crispEdges"/>
<path d="M90.0619 24.0015H87.144V26.1156C87.533 25.9174 87.9478 25.8183 88.3882 25.8183C88.792 25.8183 89.1517 25.9137 89.4673 26.1046C89.7903 26.2955 90.0399 26.5744 90.2161 26.9415C90.3996 27.3012 90.4914 27.7306 90.4914 28.2298C90.4914 28.7363 90.3776 29.1878 90.15 29.5842C89.9225 29.9732 89.6031 30.2779 89.192 30.4981C88.781 30.711 88.3038 30.8174 87.7606 30.8174C86.8283 30.8174 86.0538 30.4871 85.4372 29.8264L86.164 29.1327C86.5971 29.6099 87.1109 29.8484 87.7055 29.8484C88.1753 29.8484 88.5424 29.709 88.8067 29.43C89.0709 29.1437 89.2031 28.7436 89.2031 28.2298C89.2031 27.7012 89.0893 27.3195 88.8617 27.0846C88.6415 26.8424 88.3405 26.7212 87.9588 26.7212C87.7826 26.7212 87.6101 26.7433 87.4413 26.7873C87.2798 26.824 87.0926 26.8864 86.8797 26.9745H85.9658V23.0765H90.2271L90.0619 24.0015Z" fill="url(#paint12_linear_1_11)" shape-rendering="crispEdges"/>
<path d="M96.9397 28.9235H96.0367V30.6743H94.8475V28.9235H91.6983V28.0646L93.8785 22.9224L94.9136 23.3298L92.9866 27.9655H94.8585L94.9797 25.9394H96.0367V27.9655H96.9397V28.9235Z" fill="url(#paint13_linear_1_11)" shape-rendering="crispEdges"/>
<path d="M102.958 24.8824C102.958 25.2421 102.856 25.554 102.65 25.8183C102.445 26.0826 102.129 26.3358 101.703 26.5781C102.21 26.8057 102.595 27.092 102.859 27.437C103.131 27.782 103.267 28.1784 103.267 28.6262C103.267 29.0373 103.157 29.4117 102.936 29.7493C102.724 30.0797 102.412 30.3403 102.001 30.5311C101.597 30.722 101.12 30.8174 100.569 30.8174C100.011 30.8174 99.5303 30.722 99.1266 30.5311C98.7302 30.3403 98.4292 30.0833 98.2237 29.7603C98.0181 29.43 97.9154 29.063 97.9154 28.6592C97.9154 27.793 98.4072 27.1397 99.3909 26.6992C98.9798 26.4863 98.6825 26.2478 98.4989 25.9835C98.3154 25.7119 98.2237 25.3669 98.2237 24.9484C98.2237 24.5153 98.3338 24.1483 98.554 23.8473C98.7816 23.539 99.0752 23.3078 99.4349 23.1536C99.8019 22.9994 100.187 22.9224 100.591 22.9224C101.024 22.9224 101.417 22.9994 101.769 23.1536C102.129 23.3004 102.415 23.5206 102.628 23.8143C102.848 24.1079 102.958 24.4639 102.958 24.8824ZM99.4129 24.9594C99.4129 25.2017 99.4679 25.3999 99.578 25.554C99.6882 25.7082 99.8423 25.8367 100.041 25.9394C100.239 26.0349 100.514 26.145 100.866 26.2698C101.189 26.0716 101.421 25.8734 101.56 25.6752C101.7 25.477 101.769 25.2347 101.769 24.9484C101.769 24.6034 101.667 24.3318 101.461 24.1336C101.255 23.9281 100.965 23.8253 100.591 23.8253C100.217 23.8253 99.9267 23.9244 99.7212 24.1226C99.5157 24.3208 99.4129 24.5997 99.4129 24.9594ZM102.001 28.6372C102.001 28.3436 101.931 28.105 101.791 27.9215C101.652 27.7306 101.461 27.5764 101.219 27.459C100.984 27.3415 100.639 27.2021 100.184 27.0406C99.5157 27.3856 99.1816 27.9105 99.1816 28.6152C99.1816 29.0116 99.2991 29.3236 99.534 29.5511C99.7763 29.7714 100.125 29.8815 100.58 29.8815C101.035 29.8815 101.384 29.7677 101.626 29.5401C101.876 29.3052 102.001 29.0042 102.001 28.6372Z" fill="url(#paint14_linear_1_11)" shape-rendering="crispEdges"/>
<path d="M106.555 22.9224C107.054 22.9224 107.483 23.0178 107.843 23.2087C108.21 23.3995 108.489 23.6564 108.68 23.9794C108.871 24.3024 108.966 24.6658 108.966 25.0696C108.966 25.5173 108.864 25.9541 108.658 26.3799C108.452 26.7983 108.118 27.2645 107.656 27.7783C107.194 28.2848 106.54 28.9198 105.696 29.6833H109.143L109.01 30.6743H104.287V29.7383C105.241 28.8207 105.953 28.105 106.423 27.5911C106.893 27.0699 107.223 26.6258 107.414 26.2588C107.605 25.8917 107.7 25.521 107.7 25.1466C107.7 24.7649 107.59 24.4639 107.37 24.2437C107.149 24.0235 106.849 23.9134 106.467 23.9134C106.136 23.9134 105.854 23.9758 105.619 24.1006C105.391 24.218 105.16 24.4199 104.925 24.7062L104.132 24.0896C104.433 23.7005 104.778 23.4105 105.167 23.2197C105.557 23.0215 106.019 22.9224 106.555 22.9224Z" fill="url(#paint15_linear_1_11)" shape-rendering="crispEdges"/>
<path d="M119.407 22.9224C120.252 22.9224 120.894 23.2637 121.334 23.9464C121.775 24.6218 121.995 25.5944 121.995 26.8644C121.995 28.1343 121.775 29.1107 121.334 29.7934C120.894 30.4761 120.252 30.8174 119.407 30.8174C118.563 30.8174 117.921 30.4761 117.48 29.7934C117.04 29.1107 116.82 28.1343 116.82 26.8644C116.82 25.5944 117.04 24.6218 117.48 23.9464C117.921 23.2637 118.563 22.9224 119.407 22.9224ZM119.407 23.8693C118.967 23.8693 118.633 24.1079 118.405 24.5851C118.178 25.0622 118.064 25.822 118.064 26.8644C118.064 27.9215 118.178 28.6886 118.405 29.1657C118.633 29.6429 118.967 29.8815 119.407 29.8815C119.848 29.8815 120.182 29.6429 120.409 29.1657C120.637 28.6886 120.751 27.9215 120.751 26.8644C120.751 25.8146 120.637 25.0549 120.409 24.5851C120.182 24.1079 119.848 23.8693 119.407 23.8693ZM119.407 26.1597C119.613 26.1597 119.785 26.2294 119.925 26.3689C120.064 26.5084 120.134 26.6772 120.134 26.8754C120.134 27.0809 120.064 27.2535 119.925 27.3929C119.785 27.5324 119.613 27.6021 119.407 27.6021C119.202 27.6021 119.029 27.5324 118.89 27.3929C118.758 27.2535 118.692 27.0809 118.692 26.8754C118.692 26.6772 118.758 26.5084 118.89 26.3689C119.029 26.2294 119.202 26.1597 119.407 26.1597Z" fill="url(#paint16_linear_1_11)" shape-rendering="crispEdges"/>
<path d="M125.679 22.9224C126.524 22.9224 127.166 23.2637 127.606 23.9464C128.047 24.6218 128.267 25.5944 128.267 26.8644C128.267 28.1343 128.047 29.1107 127.606 29.7934C127.166 30.4761 126.524 30.8174 125.679 30.8174C124.835 30.8174 124.193 30.4761 123.753 29.7934C123.312 29.1107 123.092 28.1343 123.092 26.8644C123.092 25.5944 123.312 24.6218 123.753 23.9464C124.193 23.2637 124.835 22.9224 125.679 22.9224ZM125.679 23.8693C125.239 23.8693 124.905 24.1079 124.677 24.5851C124.45 25.0622 124.336 25.822 124.336 26.8644C124.336 27.9215 124.45 28.6886 124.677 29.1657C124.905 29.6429 125.239 29.8815 125.679 29.8815C126.12 29.8815 126.454 29.6429 126.682 29.1657C126.909 28.6886 127.023 27.9215 127.023 26.8644C127.023 25.8146 126.909 25.0549 126.682 24.5851C126.454 24.1079 126.12 23.8693 125.679 23.8693ZM125.679 26.1597C125.885 26.1597 126.058 26.2294 126.197 26.3689C126.337 26.5084 126.406 26.6772 126.406 26.8754C126.406 27.0809 126.337 27.2535 126.197 27.3929C126.058 27.5324 125.885 27.6021 125.679 27.6021C125.474 27.6021 125.301 27.5324 125.162 27.3929C125.03 27.2535 124.964 27.0809 124.964 26.8754C124.964 26.6772 125.03 26.5084 125.162 26.3689C125.301 26.2294 125.474 26.1597 125.679 26.1597Z" fill="url(#paint17_linear_1_11)" shape-rendering="crispEdges"/>
<path d="M131.952 22.9224C132.796 22.9224 133.438 23.2637 133.879 23.9464C134.319 24.6218 134.539 25.5944 134.539 26.8644C134.539 28.1343 134.319 29.1107 133.879 29.7934C133.438 30.4761 132.796 30.8174 131.952 30.8174C131.107 30.8174 130.465 30.4761 130.025 29.7934C129.584 29.1107 129.364 28.1343 129.364 26.8644C129.364 25.5944 129.584 24.6218 130.025 23.9464C130.465 23.2637 131.107 22.9224 131.952 22.9224ZM131.952 23.8693C131.511 23.8693 131.177 24.1079 130.95 24.5851C130.722 25.0622 130.608 25.822 130.608 26.8644C130.608 27.9215 130.722 28.6886 130.95 29.1657C131.177 29.6429 131.511 29.8815 131.952 29.8815C132.392 29.8815 132.726 29.6429 132.954 29.1657C133.181 28.6886 133.295 27.9215 133.295 26.8644C133.295 25.8146 133.181 25.0549 132.954 24.5851C132.726 24.1079 132.392 23.8693 131.952 23.8693ZM131.952 26.1597C132.157 26.1597 132.33 26.2294 132.469 26.3689C132.609 26.5084 132.678 26.6772 132.678 26.8754C132.678 27.0809 132.609 27.2535 132.469 27.3929C132.33 27.5324 132.157 27.6021 131.952 27.6021C131.746 27.6021 131.574 27.5324 131.434 27.3929C131.302 27.2535 131.236 27.0809 131.236 26.8754C131.236 26.6772 131.302 26.5084 131.434 26.3689C131.574 26.2294 131.746 26.1597 131.952 26.1597Z" fill="url(#paint18_linear_1_11)" shape-rendering="crispEdges"/>
<path d="M137.915 22.9224C138.415 22.9224 138.844 23.0178 139.204 23.2087C139.571 23.3995 139.85 23.6564 140.041 23.9794C140.231 24.3024 140.327 24.6658 140.327 25.0696C140.327 25.5173 140.224 25.9541 140.019 26.3799C139.813 26.7983 139.479 27.2645 139.017 27.7783C138.554 28.2848 137.901 28.9198 137.057 29.6833H140.503L140.371 30.6743H135.647V29.7383C136.601 28.8207 137.313 28.105 137.783 27.5911C138.253 27.0699 138.583 26.6258 138.774 26.2588C138.965 25.8917 139.061 25.521 139.061 25.1466C139.061 24.7649 138.95 24.4639 138.73 24.2437C138.51 24.0235 138.209 23.9134 137.827 23.9134C137.497 23.9134 137.214 23.9758 136.979 24.1006C136.752 24.218 136.521 24.4199 136.286 24.7062L135.493 24.0896C135.794 23.7005 136.139 23.4105 136.528 23.2197C136.917 23.0215 137.38 22.9224 137.915 22.9224Z" fill="url(#paint19_linear_1_11)" shape-rendering="crispEdges"/>
</g>
<g filter="url(#filter3_i_1_11)">
<path d="M201.077 113.909C201.077 119.482 196.56 123.999 190.988 123.999C185.416 123.999 180.899 119.482 180.899 113.909C180.899 108.337 185.416 103.82 190.988 103.82C196.56 103.82 201.077 108.337 201.077 113.909Z" fill="white" fill-opacity="0.04"/>
</g>
<g filter="url(#filter4_i_1_11)">
<path fill-rule="evenodd" clip-rule="evenodd" d="M190.988 123.638C196.361 123.638 200.717 119.283 200.717 113.909C200.717 108.536 196.361 104.181 190.988 104.181C185.615 104.181 181.259 108.536 181.259 113.909C181.259 119.283 185.615 123.638 190.988 123.638ZM190.988 123.999C196.56 123.999 201.077 119.482 201.077 113.909C201.077 108.337 196.56 103.82 190.988 103.82C185.416 103.82 180.899 108.337 180.899 113.909C180.899 119.482 185.416 123.999 190.988 123.999Z" fill="white" fill-opacity="0.53"/>
</g>
<g filter="url(#filter5_i_1_11)">
<path d="M213.688 113.909C213.688 119.482 209.171 123.999 203.599 123.999C198.027 123.999 193.51 119.482 193.51 113.909C193.51 108.337 198.027 103.82 203.599 103.82C209.171 103.82 213.688 108.337 213.688 113.909Z" fill="white" fill-opacity="0.04"/>
</g>
<g filter="url(#filter6_i_1_11)">
<path fill-rule="evenodd" clip-rule="evenodd" d="M203.599 123.638C208.972 123.638 213.328 119.283 213.328 113.909C213.328 108.536 208.972 104.181 203.599 104.181C198.226 104.181 193.871 108.536 193.871 113.909C193.871 119.283 198.226 123.638 203.599 123.638ZM203.599 123.999C209.171 123.999 213.688 119.482 213.688 113.909C213.688 108.337 209.171 103.82 203.599 103.82C198.027 103.82 193.51 108.337 193.51 113.909C193.51 119.482 198.027 123.999 203.599 123.999Z" fill="white" fill-opacity="0.53"/>
</g>
<defs>
<filter id="filter0_b_1_11" x="-30" y="-30" width="292.809" height="200" filterUnits="userSpaceOnUse" color-interpolation-filters="sRGB">
<feFlood flood-opacity="0" result="BackgroundImageFix"/>
<feGaussianBlur in="BackgroundImage" stdDeviation="15"/>
<feComposite in2="SourceAlpha" operator="in" result="effect1_backgroundBlur_1_11"/>
<feBlend mode="normal" in="SourceGraphic" in2="effect1_backgroundBlur_1_11" result="shape"/>
</filter>
<filter id="filter1_bi_1_11" x="12.0225" y="34.8315" width="45.955" height="40.4495" filterUnits="userSpaceOnUse" color-interpolation-filters="sRGB">
<feFlood flood-opacity="0" result="BackgroundImageFix"/>
<feGaussianBlur in="BackgroundImage" stdDeviation="5"/>
<feComposite in2="SourceAlpha" operator="in" result="effect1_backgroundBlur_1_11"/>
<feBlend mode="normal" in="SourceGraphic" in2="effect1_backgroundBlur_1_11" result="shape"/>
<feColorMatrix in="SourceAlpha" type="matrix" values="0 0 0 0 0 0 0 0 0 0 0 0 0 0 0 0 0 0 127 0" result="hardAlpha"/>
<feOffset dx="1" dy="1"/>
<feGaussianBlur stdDeviation="0.5"/>
<feComposite in2="hardAlpha" operator="arithmetic" k2="-1" k3="1"/>
<feColorMatrix type="matrix" values="0 0 0 0 0 0 0 0 0 0 0 0 0 0 0 0 0 0 0.25 0"/>
<feBlend mode="normal" in2="shape" result="effect2_innerShadow_1_11"/>
</filter>
<filter id="filter2_di_1_11" x="21.7162" y="21.9224" width="121.787" height="9.89502" filterUnits="userSpaceOnUse" color-interpolation-filters="sRGB">
<feFlood flood-opacity="0" result="BackgroundImageFix"/>
<feColorMatrix in="SourceAlpha" type="matrix" values="0 0 0 0 0 0 0 0 0 0 0 0 0 0 0 0 0 0 127 0" result="hardAlpha"/>
<feOffset dx="2"/>
<feGaussianBlur stdDeviation="0.5"/>
<feComposite in2="hardAlpha" operator="out"/>
<feColorMatrix type="matrix" values="0 0 0 0 0 0 0 0 0 0 0 0 0 0 0 0 0 0 0.21 0"/>
<feBlend mode="normal" in2="BackgroundImageFix" result="effect1_dropShadow_1_11"/>
<feBlend mode="normal" in="SourceGraphic" in2="effect1_dropShadow_1_11" result="shape"/>
<feColorMatrix in="SourceAlpha" type="matrix" values="0 0 0 0 0 0 0 0 0 0 0 0 0 0 0 0 0 0 127 0" result="hardAlpha"/>
<feOffset dx="-1"/>
<feGaussianBlur stdDeviation="0.5"/>
<feComposite in2="hardAlpha" operator="arithmetic" k2="-1" k3="1"/>
<feColorMatrix type="matrix" values="0 0 0 0 0 0 0 0 0 0 0 0 0 0 0 0 0 0 0.23 0"/>
<feBlend mode="normal" in2="shape" result="effect2_innerShadow_1_11"/>
</filter>
<filter id="filter3_i_1_11" x="180.899" y="103.82" width="23.1783" height="20.1782" filterUnits="userSpaceOnUse" color-interpolation-filters="sRGB">
<feFlood flood-opacity="0" result="BackgroundImageFix"/>
<feBlend mode="normal" in="SourceGraphic" in2="BackgroundImageFix" result="shape"/>
<feColorMatrix in="SourceAlpha" type="matrix" values="0 0 0 0 0 0 0 0 0 0 0 0 0 0 0 0 0 0 127 0" result="hardAlpha"/>
<feOffset dx="3"/>
<feGaussianBlur stdDeviation="4"/>
<feComposite in2="hardAlpha" operator="arithmetic" k2="-1" k3="1"/>
<feColorMatrix type="matrix" values="0 0 0 0 0 0 0 0 0 0 0 0 0 0 0 0 0 0 0.19 0"/>
<feBlend mode="normal" in2="shape" result="effect1_innerShadow_1_11"/>
</filter>
<filter id="filter4_i_1_11" x="180.899" y="103.82" width="23.1783" height="20.1782" filterUnits="userSpaceOnUse" color-interpolation-filters="sRGB">
<feFlood flood-opacity="0" result="BackgroundImageFix"/>
<feBlend mode="normal" in="SourceGraphic" in2="BackgroundImageFix" result="shape"/>
<feColorMatrix in="SourceAlpha" type="matrix" values="0 0 0 0 0 0 0 0 0 0 0 0 0 0 0 0 0 0 127 0" result="hardAlpha"/>
<feOffset dx="3"/>
<feGaussianBlur stdDeviation="4"/>
<feComposite in2="hardAlpha" operator="arithmetic" k2="-1" k3="1"/>
<feColorMatrix type="matrix" values="0 0 0 0 0 0 0 0 0 0 0 0 0 0 0 0 0 0 0.19 0"/>
<feBlend mode="normal" in2="shape" result="effect1_innerShadow_1_11"/>
</filter>
<filter id="filter5_i_1_11" x="193.51" y="103.82" width="23.1783" height="20.1782" filterUnits="userSpaceOnUse" color-interpolation-filters="sRGB">
<feFlood flood-opacity="0" result="BackgroundImageFix"/>
<feBlend mode="normal" in="SourceGraphic" in2="BackgroundImageFix" result="shape"/>
<feColorMatrix in="SourceAlpha" type="matrix" values="0 0 0 0 0 0 0 0 0 0 0 0 0 0 0 0 0 0 127 0" result="hardAlpha"/>
<feOffset dx="3"/>
<feGaussianBlur stdDeviation="4"/>
<feComposite in2="hardAlpha" operator="arithmetic" k2="-1" k3="1"/>
<feColorMatrix type="matrix" values="0 0 0 0 0 0 0 0 0 0 0 0 0 0 0 0 0 0 0.19 0"/>
<feBlend mode="normal" in2="shape" result="effect1_innerShadow_1_11"/>
</filter>
<filter id="filter6_i_1_11" x="193.51" y="103.82" width="23.1783" height="20.1782" filterUnits="userSpaceOnUse" color-interpolation-filters="sRGB">
<feFlood flood-opacity="0" result="BackgroundImageFix"/>
<feBlend mode="normal" in="SourceGraphic" in2="BackgroundImageFix" result="shape"/>
<feColorMatrix in="SourceAlpha" type="matrix" values="0 0 0 0 0 0 0 0 0 0 0 0 0 0 0 0 0 0 127 0" result="hardAlpha"/>
<feOffset dx="3"/>
<feGaussianBlur stdDeviation="4"/>
<feComposite in2="hardAlpha" operator="arithmetic" k2="-1" k3="1"/>
<feColorMatrix type="matrix" values="0 0 0 0 0 0 0 0 0 0 0 0 0 0 0 0 0 0 0.19 0"/>
<feBlend mode="normal" in2="shape" result="effect1_innerShadow_1_11"/>
</filter>
<linearGradient id="paint0_linear_1_11" x1="23.8619" y1="-1.40292" x2="218.365" y2="158.546" gradientUnits="userSpaceOnUse">
<stop stop-color="white"/>
<stop offset="1" stop-color="white" stop-opacity="0"/>
</linearGradient>
<linearGradient id="paint1_linear_1_11" x1="28.2075" y1="-2.14425" x2="195.836" y2="150.641" gradientUnits="userSpaceOnUse">
<stop stop-color="white"/>
<stop offset="1" stop-color="white" stop-opacity="0.17"/>
</linearGradient>
<linearGradient id="paint2_linear_1_11" x1="22.0225" y1="44.8315" x2="47.9775" y2="65.281" gradientUnits="userSpaceOnUse">
<stop stop-color="white" stop-opacity="0"/>
<stop offset="1" stop-color="white" stop-opacity="0.47"/>
</linearGradient>
<linearGradient id="paint3_linear_1_11" x1="26.7416" y1="47.5844" x2="51.1236" y2="65.281" gradientUnits="userSpaceOnUse">
<stop stop-color="white" stop-opacity="0.44"/>
<stop offset="1" stop-color="white" stop-opacity="0"/>
</linearGradient>
<linearGradient id="paint4_linear_1_11" x1="20.8881" y1="-3.19399" x2="166.504" y2="16.9833" gradientUnits="userSpaceOnUse">
<stop stop-color="#F5F5F5"/>
<stop offset="1" stop-color="#F9F9F9" stop-opacity="0.49"/>
</linearGradient>
<linearGradient id="paint5_linear_1_11" x1="20.8881" y1="-3.19399" x2="166.504" y2="16.9833" gradientUnits="userSpaceOnUse">
<stop stop-color="#F5F5F5"/>
<stop offset="1" stop-color="#F9F9F9" stop-opacity="0.49"/>
</linearGradient>
<linearGradient id="paint6_linear_1_11" x1="20.8881" y1="-3.19399" x2="166.504" y2="16.9833" gradientUnits="userSpaceOnUse">
<stop stop-color="#F5F5F5"/>
<stop offset="1" stop-color="#F9F9F9" stop-opacity="0.49"/>
</linearGradient>
<linearGradient id="paint7_linear_1_11" x1="20.8881" y1="-3.19399" x2="166.504" y2="16.9833" gradientUnits="userSpaceOnUse">
<stop stop-color="#F5F5F5"/>
<stop offset="1" stop-color="#F9F9F9" stop-opacity="0.49"/>
</linearGradient>
<linearGradient id="paint8_linear_1_11" x1="20.8881" y1="-3.19399" x2="166.504" y2="16.9833" gradientUnits="userSpaceOnUse">
<stop stop-color="#F5F5F5"/>
<stop offset="1" stop-color="#F9F9F9" stop-opacity="0.49"/>
</linearGradient>
<linearGradient id="paint9_linear_1_11" x1="20.8881" y1="-3.19399" x2="166.504" y2="16.9833" gradientUnits="userSpaceOnUse">
<stop stop-color="#F5F5F5"/>
<stop offset="1" stop-color="#F9F9F9" stop-opacity="0.49"/>
</linearGradient>
<linearGradient id="paint10_linear_1_11" x1="20.8881" y1="-3.19399" x2="166.504" y2="16.9833" gradientUnits="userSpaceOnUse">
<stop stop-color="#F5F5F5"/>
<stop offset="1" stop-color="#F9F9F9" stop-opacity="0.49"/>
</linearGradient>
<linearGradient id="paint11_linear_1_11" x1="20.8881" y1="-3.19399" x2="166.504" y2="16.9833" gradientUnits="userSpaceOnUse">
<stop stop-color="#F5F5F5"/>
<stop offset="1" stop-color="#F9F9F9" stop-opacity="0.49"/>
</linearGradient>
<linearGradient id="paint12_linear_1_11" x1="20.8881" y1="-3.19399" x2="166.504" y2="16.9833" gradientUnits="userSpaceOnUse">
<stop stop-color="#F5F5F5"/>
<stop offset="1" stop-color="#F9F9F9" stop-opacity="0.49"/>
</linearGradient>
<linearGradient id="paint13_linear_1_11" x1="20.8881" y1="-3.19399" x2="166.504" y2="16.9833" gradientUnits="userSpaceOnUse">
<stop stop-color="#F5F5F5"/>
<stop offset="1" stop-color="#F9F9F9" stop-opacity="0.49"/>
</linearGradient>
<linearGradient id="paint14_linear_1_11" x1="20.8881" y1="-3.19399" x2="166.504" y2="16.9833" gradientUnits="userSpaceOnUse">
<stop stop-color="#F5F5F5"/>
<stop offset="1" stop-color="#F9F9F9" stop-opacity="0.49"/>
</linearGradient>
<linearGradient id="paint15_linear_1_11" x1="20.8881" y1="-3.19399" x2="166.504" y2="16.9833" gradientUnits="userSpaceOnUse">
<stop stop-color="#F5F5F5"/>
<stop offset="1" stop-color="#F9F9F9" stop-opacity="0.49"/>
</linearGradient>
<linearGradient id="paint16_linear_1_11" x1="20.8881" y1="-3.19399" x2="166.504" y2="16.9833" gradientUnits="userSpaceOnUse">
<stop stop-color="#F5F5F5"/>
<stop offset="1" stop-color="#F9F9F9" stop-opacity="0.49"/>
</linearGradient>
<linearGradient id="paint17_linear_1_11" x1="20.8881" y1="-3.19399" x2="166.504" y2="16.9833" gradientUnits="userSpaceOnUse">
<stop stop-color="#F5F5F5"/>
<stop offset="1" stop-color="#F9F9F9" stop-opacity="0.49"/>
</linearGradient>
<linearGradient id="paint18_linear_1_11" x1="20.8881" y1="-3.19399" x2="166.504" y2="16.9833" gradientUnits="userSpaceOnUse">
<stop stop-color="#F5F5F5"/>
<stop offset="1" stop-color="#F9F9F9" stop-opacity="0.49"/>
</linearGradient>
<linearGradient id="paint19_linear_1_11" x1="20.8881" y1="-3.19399" x2="166.504" y2="16.9833" gradientUnits="userSpaceOnUse">
<stop stop-color="#F5F5F5"/>
<stop offset="1" stop-color="#F9F9F9" stop-opacity="0.49"/>
</linearGradient>
</defs>
</svg>
