<svg width="352" height="47" viewBox="0 0 352 47" fill="none" xmlns="http://www.w3.org/2000/svg">
<path d="M99.7829 46.64C96.4976 46.64 93.4683 46.0853 90.6949 44.976C87.9643 43.824 85.5749 42.224 83.5269 40.176C81.5216 38.0853 79.9643 35.632 78.8549 32.816C77.7456 29.9573 77.1909 26.8426 77.1909 23.472C77.1909 20.1866 77.7669 17.1573 78.9189 14.384C80.0709 11.568 81.6923 9.13596 83.7829 7.08796C85.8736 4.99729 88.3269 3.37596 91.1429 2.22396C93.9589 1.07196 97.0096 0.495956 100.295 0.495956C102.428 0.495956 104.519 0.794623 106.567 1.39196C108.658 1.94662 110.556 2.77862 112.263 3.88795C114.012 4.99729 115.506 6.31996 116.743 7.85596L110.727 14.512C109.703 13.488 108.636 12.6133 107.527 11.888C106.46 11.12 105.308 10.544 104.071 10.16C102.876 9.73329 101.596 9.51995 100.231 9.51995C98.3963 9.51995 96.6683 9.86129 95.0469 10.544C93.4683 11.2266 92.0816 12.1866 90.8869 13.424C89.6923 14.6186 88.7323 16.0906 88.0069 17.84C87.3243 19.5466 86.9829 21.4453 86.9829 23.536C86.9829 25.6693 87.3243 27.6106 88.0069 29.36C88.6896 31.0666 89.6496 32.5386 90.8869 33.776C92.1243 34.9706 93.5963 35.9093 95.3029 36.592C97.0523 37.232 98.9723 37.552 101.063 37.552C102.428 37.552 103.751 37.36 105.031 36.976C106.311 36.592 107.484 36.0586 108.551 35.376C109.66 34.6933 110.642 33.904 111.495 33.008L116.167 40.496C115.143 41.648 113.756 42.6933 112.007 43.632C110.3 44.5706 108.38 45.3173 106.247 45.872C104.114 46.384 101.959 46.64 99.7829 46.64Z" fill="white"/>
<path d="M117.668 46L135.204 1.19995H143.78L161.252 46H151.396L142.372 21.872C142.116 21.1893 141.796 20.3146 141.412 19.248C141.071 18.1813 140.708 17.0506 140.324 15.856C139.94 14.6613 139.577 13.5306 139.236 12.464C138.895 11.3546 138.639 10.4373 138.468 9.71196L140.196 9.64796C139.94 10.6293 139.641 11.6533 139.3 12.72C139.001 13.744 138.681 14.8106 138.34 15.92C137.999 16.9866 137.636 18.032 137.252 19.056C136.868 20.08 136.505 21.0826 136.164 22.064L127.14 46H117.668ZM125.796 36.592L128.932 28.848H149.476L152.676 36.592H125.796Z" fill="white"/>
<path d="M180.79 46.64C178.017 46.64 175.478 46.2986 173.174 45.616C170.913 44.9333 168.886 43.9306 167.094 42.608C165.345 41.2853 163.766 39.6853 162.358 37.808L168.374 30.96C170.465 33.8613 172.534 35.8453 174.582 36.912C176.673 37.936 178.934 38.448 181.366 38.448C182.689 38.448 183.862 38.2773 184.886 37.936C185.953 37.552 186.785 37.0186 187.382 36.336C187.98 35.6533 188.278 34.8426 188.278 33.904C188.278 33.2213 188.129 32.6026 187.83 32.048C187.532 31.4506 187.105 30.9386 186.55 30.512C185.996 30.0426 185.334 29.6373 184.566 29.296C183.798 28.912 182.945 28.592 182.006 28.336C181.068 28.0373 180.044 27.8026 178.934 27.632C176.545 27.0773 174.454 26.416 172.662 25.648C170.87 24.8373 169.377 23.856 168.182 22.704C166.988 21.5093 166.092 20.1653 165.494 18.672C164.94 17.1786 164.662 15.4933 164.662 13.616C164.662 11.696 165.089 9.92529 165.942 8.30396C166.796 6.63996 167.969 5.21062 169.462 4.01596C170.998 2.82129 172.748 1.90396 174.71 1.26395C176.716 0.623955 178.828 0.303955 181.046 0.303955C183.777 0.303955 186.166 0.623955 188.214 1.26395C190.262 1.86129 192.033 2.73595 193.526 3.88795C195.062 5.03996 196.342 6.44796 197.366 8.11196L191.286 14C190.39 12.8053 189.409 11.8026 188.342 10.992C187.318 10.1813 186.188 9.58396 184.95 9.19995C183.756 8.77329 182.518 8.55996 181.238 8.55996C179.83 8.55996 178.614 8.75196 177.59 9.13596C176.566 9.47729 175.756 9.98929 175.158 10.672C174.604 11.3546 174.326 12.1866 174.326 13.168C174.326 13.936 174.518 14.6186 174.902 15.216C175.286 15.8133 175.841 16.3466 176.566 16.816C177.292 17.2426 178.166 17.6266 179.19 17.968C180.214 18.3093 181.345 18.608 182.582 18.864C184.929 19.3333 187.041 19.952 188.918 20.72C190.796 21.488 192.396 22.4266 193.718 23.536C195.084 24.6026 196.129 25.8826 196.854 27.376C197.58 28.8266 197.942 30.4693 197.942 32.304C197.942 35.3333 197.217 37.9146 195.766 40.048C194.316 42.1813 192.31 43.824 189.75 44.976C187.19 46.0853 184.204 46.64 180.79 46.64Z" fill="white"/>
<path d="M233.581 46V1.19995H243.181V46H233.581ZM205.357 46V1.19995H214.957V46H205.357ZM209.197 28.016L209.261 19.312H238.509V28.016H209.197Z" fill="white"/>
<path d="M0.326904 46V1.19995H29.6389V8.75195H8.51891V38.448H29.8949V46H0.326904ZM4.1669 26.8V19.376H26.3749V26.8H4.1669Z" fill="white" fill-opacity="0.65"/>
<path d="M36.8709 46V40.176L61.8949 6.76795L63.8789 9.00795H38.5349V1.19995H71.4949V6.95995L46.5989 40.432L44.5509 38.32H72.1989V46H36.8709Z" fill="white" fill-opacity="0.65"/>
<path d="M256.311 46V1.19995H285.623V8.75195H264.503V38.448H285.879V46H256.311ZM260.151 26.8V19.376H282.359V26.8H260.151Z" fill="white" fill-opacity="0.65"/>
<path d="M304.055 46L290.103 1.19995H298.807L306.743 27.632C306.999 28.4426 307.234 29.3386 307.447 30.32C307.66 31.3013 307.852 32.2826 308.023 33.264C308.194 34.2026 308.343 35.0773 308.471 35.888C308.599 36.6986 308.727 37.3813 308.855 37.936L307.127 37.872C307.639 35.8666 308.044 34.2453 308.343 33.008C308.642 31.7706 308.898 30.7466 309.111 29.936C309.367 29.0826 309.623 28.2933 309.879 27.568L317.431 8.23995H324.535L331.895 27.568C332.322 28.7626 332.706 29.9146 333.047 31.024C333.388 32.0906 333.666 33.1573 333.879 34.224C334.135 35.248 334.37 36.3146 334.583 37.424L333.047 37.744C333.218 36.72 333.346 35.888 333.431 35.248C333.516 34.608 333.602 34.032 333.687 33.52C333.772 33.008 333.858 32.5173 333.943 32.048C334.028 31.536 334.156 30.9386 334.327 30.256C334.54 29.5306 334.796 28.6133 335.095 27.504L342.967 1.19995H351.607L337.591 46H331.575L320.183 18.736L320.951 18.992L310.135 46H304.055Z" fill="white" fill-opacity="0.65"/>
</svg>
