<svg width="46" height="96" viewBox="0 0 46 96" fill="none" xmlns="http://www.w3.org/2000/svg">
<path d="M17.6042 89.8462C17.6042 92.1403 19.464 94 21.7581 94C24.0522 94 25.9119 92.1403 25.9119 89.8462V84.4615H17.6042V89.8462Z" stroke="white" stroke-width="4"/>
<path fill-rule="evenodd" clip-rule="evenodd" d="M39.4167 48.2296L39.0526 47.8474C36.4428 45.1079 32.0907 45.0022 29.351 47.6121C27.4029 49.4679 26.7184 52.308 27.6073 54.8475L29.1035 59.1224C29.6928 60.8059 29.239 62.6886 27.9478 63.9186C26.5966 65.2057 24.626 65.5383 22.9271 64.7658L16.5615 61.8708C12.8703 60.1918 8.58792 60.9145 5.65181 63.7115C1.70564 67.4707 1.55356 73.7397 5.31281 77.6858L6.82722 79.2755C14.833 87.6794 28.183 88.0032 36.5867 79.9975L38.6949 77.9892C47.0985 69.9833 47.4223 56.6333 39.4167 48.2296ZM33.9356 77.2145C27.0663 83.7584 16.1539 83.4937 9.60992 76.6243L8.09551 75.0346C5.798 72.6228 5.89095 68.7915 8.30269 66.494C10.0972 64.7845 12.7144 64.3429 14.9703 65.369L21.3361 68.2641C24.4701 69.6896 28.1058 69.076 30.5988 66.7012C32.9812 64.4316 33.8182 60.9584 32.7312 57.8527L31.2349 53.5776C30.8439 52.4605 31.145 51.2113 32.0021 50.3948C33.2072 49.2467 35.1218 49.2931 36.2699 50.4983L36.634 50.8805C43.178 57.7499 42.9133 68.6623 36.044 75.2062L33.9356 77.2145Z" fill="white"/>
<path d="M23.3905 49.4723C24.271 46.93 23.5774 44.0922 21.6233 42.2426L18.3337 39.1292C17.0383 37.9033 16.5785 36.022 17.1622 34.3369C17.7729 32.5736 19.3719 31.3747 21.2358 31.2824L28.2206 30.9372C32.2707 30.737 35.7454 28.1317 37.0725 24.3C38.8562 19.1499 36.1175 13.5088 30.9675 11.7251L28.8928 11.0065C17.9254 7.20788 5.91237 13.0401 2.11374 24.0075L1.16077 26.7588C-2.63786 37.7262 3.19433 49.7392 14.1617 53.5379L14.6606 53.7107C18.2359 54.9489 22.1521 53.0476 23.3905 49.4723ZM15.9184 50.0788L15.4195 49.906C6.45465 46.801 1.68735 36.9814 4.7924 28.0165L5.74536 25.2652C8.85049 16.3005 18.6701 11.5332 27.6348 14.6382L29.7095 15.3568C32.8569 16.4469 34.5307 19.8946 33.4406 23.042C32.6295 25.3839 30.5059 26.9761 28.0306 27.0985L21.0458 27.4437C17.6071 27.6136 14.6571 29.8257 13.5303 33.079C12.4533 36.1882 13.3018 39.6587 15.6916 41.9206L18.9811 45.0339C19.8407 45.8476 20.1459 47.0959 19.7585 48.2144C19.214 49.7872 17.4913 50.6236 15.9184 50.0788Z" fill="white"/>
<path d="M17.6042 6.15385C17.6042 3.85974 19.464 2 21.7581 2C24.0522 2 25.9119 3.85974 25.9119 6.15384V11.5385H17.6042V6.15385Z" stroke="white" stroke-width="4"/>
</svg>
