<svg width="22" height="22" viewBox="0 0 22 22" fill="none" xmlns="http://www.w3.org/2000/svg">
<path d="M18.0266 9.68048L15.046 7.95898L11.9946 11.0104L15.0458 14.0616L18.0367 12.3343C18.5031 12.051 18.7814 11.556 18.7814 11.0104C18.7814 10.4648 18.5029 9.96978 18.0266 9.68048V9.68048Z" fill="#FFCE00"/>
<path d="M11.9946 11.0104L3.68324 2.63916C3.39416 2.92824 3.2186 3.3205 3.2186 3.75412V18.2411C3.2186 18.6747 3.39416 19.067 3.68324 19.3563L11.9946 11.0104Z" fill="url(#paint0_linear_1_45)"/>
<path d="M11.9946 11.0104L15.046 7.95895L15.0508 7.95411L10.9624 5.60011L5.57281 2.43255C5.08749 2.13313 4.49899 2.12279 4.00333 2.40153C3.88981 2.47369 3.78641 2.54607 3.68323 2.63891L11.9946 11.0104Z" fill="#00F076"/>
<path d="M3.68323 19.356C3.78641 19.4488 3.88981 19.5212 4.00333 19.5933C4.25105 19.7275 4.50933 19.7999 4.76739 19.7999C5.04613 19.7999 5.31453 19.7174 5.56247 19.5729L10.9621 16.4205L15.0506 14.0665L15.0458 14.0617L11.9946 11.0103L3.68323 19.356Z" fill="#F63448"/>
<defs>
<linearGradient id="paint0_linear_1_45" x1="-0.495879" y1="15.177" x2="7.86258" y2="6.81829" gradientUnits="userSpaceOnUse">
<stop stop-color="#00E2FF"/>
<stop offset="1" stop-color="#00C5FF"/>
</linearGradient>
</defs>
</svg>
