<svg width="64" height="64" viewBox="0 0 64 64" fill="none" xmlns="http://www.w3.org/2000/svg">
<path d="M23.6603 49.2413C23.012 49.757 22.9045 50.7006 23.4202 51.349C23.9359 51.9973 24.8795 52.1048 25.5279 51.5891L31.7887 46.609C32.4371 46.0933 32.5446 45.1496 32.0289 44.5013C31.5132 43.853 30.5695 43.7455 29.9212 44.2612L23.6603 49.2413Z" fill="#F5A970"/>
<path fill-rule="evenodd" clip-rule="evenodd" d="M1.84936 37.8347C-0.729184 34.593 -0.191611 29.8748 3.05006 27.2962L34.8848 1.97375C38.1265 -0.604794 42.8447 -0.0672219 45.4232 3.17445L61.6086 23.5223C64.1871 26.7639 63.6496 31.4821 60.4079 34.0607L28.5732 59.3832C25.3315 61.9617 20.6133 61.4241 18.0347 58.1825L4.84424 41.5997C4.76662 41.5351 4.69439 41.4616 4.62904 41.3795C4.56369 41.2973 4.50834 41.2104 4.46284 41.1203L1.84936 37.8347ZM20.3826 56.3149L7.93514 40.6664L46.8133 9.74125L59.2608 25.3898C60.8079 27.3348 60.4853 30.1657 58.5403 31.7129L26.7056 57.0353C24.7606 58.5825 21.9297 58.2599 20.3826 56.3149ZM43.0754 5.04199L44.9458 7.39342L6.06759 38.3185L4.19718 35.9671C2.65006 34.0221 2.9726 31.1912 4.9176 29.6441L36.7523 4.32157C38.6973 2.77445 41.5283 3.09699 43.0754 5.04199Z" fill="#F5A970"/>
<path d="M3 61.5H62" stroke="#F5A970" stroke-width="3" stroke-linecap="round"/>
</svg>
