<svg width="64" height="64" viewBox="0 0 64 64" fill="none" xmlns="http://www.w3.org/2000/svg">
<path d="M24 32L40.5 15" stroke="#F5A970" stroke-width="3" stroke-linecap="round"/>
<path d="M12.9087 34.2148L11.6112 34.9675H11.6112L12.9087 34.2148ZM51.0913 34.2147L52.3888 34.9675L51.0913 34.2147ZM37.3073 57.9725L36.0099 57.2197L37.3073 57.9725ZM26.6927 57.9724L27.9901 57.2197L26.6927 57.9724ZM38.6048 58.7252L52.3888 34.9675L49.7939 33.462L36.0099 57.2197L38.6048 58.7252ZM11.6112 34.9675L25.3952 58.7252L27.9901 57.2197L14.2061 33.462L11.6112 34.9675ZM32 0.5C14.0428 0.5 2.66991 19.5565 11.6112 34.9675L14.2061 33.462C6.47504 20.1369 16.255 3.5 32 3.5V0.5ZM52.3888 34.9675C61.3301 19.5565 49.9572 0.5 32 0.5V3.5C47.745 3.5 57.525 20.1369 49.7939 33.462L52.3888 34.9675ZM36.0099 57.2197C34.2459 60.2601 29.7541 60.2601 27.9901 57.2197L25.3952 58.7252C28.3154 63.7582 35.6846 63.7583 38.6048 58.7252L36.0099 57.2197Z" fill="#F5A970"/>
<circle cx="39" cy="30" r="4" stroke="#F5A970" stroke-width="3"/>
<circle cx="25" cy="18" r="4" stroke="#F5A970" stroke-width="3"/>
<path d="M15 62.5H48.5" stroke="#F5A970" stroke-width="3" stroke-linecap="round"/>
</svg>
