<svg width="64" height="64" viewBox="0 0 64 64" fill="none" xmlns="http://www.w3.org/2000/svg">
<rect x="1.5" y="32.5" width="38" height="10" rx="5" stroke="#F5A970" stroke-width="3"/>
<rect x="10.5" y="52.5" width="38" height="10" rx="5" stroke="#F5A970" stroke-width="3"/>
<rect x="10.5" y="42.5" width="38" height="10" rx="5" stroke="#F5A970" stroke-width="3"/>
<circle cx="36" cy="17" r="15" stroke="#F5A970" stroke-width="3"/>
<path d="M36.6719 26.112C35.3279 26.112 34.1226 25.888 33.0559 25.44C31.9892 24.9707 31.1466 24.3307 30.5279 23.52C29.9092 22.688 29.5679 21.7387 29.5039 20.672H32.5119C32.5972 21.5467 33.0026 22.2613 33.7279 22.816C34.4746 23.3707 35.4452 23.648 36.6399 23.648C37.7492 23.648 38.6239 23.4027 39.2639 22.912C39.9039 22.4213 40.2239 21.8027 40.2239 21.056C40.2239 20.288 39.8826 19.7227 39.1999 19.36C38.5172 18.976 37.4612 18.6027 36.0319 18.24C34.7306 17.8987 33.6639 17.5573 32.8319 17.216C32.0212 16.8533 31.3172 16.3307 30.7199 15.648C30.1439 14.944 29.8559 14.0267 29.8559 12.896C29.8559 12 30.1226 11.1787 30.6559 10.432C31.1892 9.68533 31.9466 9.09867 32.9279 8.672C33.9092 8.224 35.0292 8 36.2879 8C38.2292 8 39.7972 8.49067 40.9919 9.472C42.1866 10.4533 42.8266 11.7973 42.9119 13.504H39.9999C39.9359 12.5867 39.5626 11.8507 38.8799 11.296C38.2186 10.7413 37.3226 10.464 36.1919 10.464C35.1466 10.464 34.3146 10.688 33.6959 11.136C33.0772 11.584 32.7679 12.1707 32.7679 12.896C32.7679 13.472 32.9492 13.952 33.3119 14.336C33.6959 14.6987 34.1652 14.9973 34.7199 15.232C35.2959 15.4453 36.0852 15.6907 37.0879 15.968C38.3466 16.3093 39.3706 16.6507 40.1599 16.992C40.9492 17.312 41.6212 17.8027 42.1759 18.464C42.7519 19.1253 43.0506 19.9893 43.0719 21.056C43.0719 22.016 42.8052 22.88 42.2719 23.648C41.7386 24.416 40.9812 25.024 39.9999 25.472C39.0399 25.8987 37.9306 26.112 36.6719 26.112Z" fill="#F5A970"/>
<path d="M36 9V7" stroke="#F5A970" stroke-width="3" stroke-linecap="round"/>
<path d="M36 27V26" stroke="#F5A970" stroke-width="3" stroke-linecap="round"/>
</svg>
